<?xml version="1.0" encoding="utf-8"?>
<!-- Generator: Adobe Illustrator 16.0.0, SVG Export Plug-In . SVG Version: 6.00 Build 0)  -->
<!DOCTYPE svg PUBLIC "-//W3C//DTD SVG 1.1//EN" "http://www.w3.org/Graphics/SVG/1.1/DTD/svg11.dtd">
<svg version="1.1" id="Calque_1" xmlns="http://www.w3.org/2000/svg" xmlns:xlink="http://www.w3.org/1999/xlink" x="0px" y="0px"
	 width="292.393px" height="134.025px" viewBox="0 0 292.393 134.025" enable-background="new 0 0 292.393 134.025"
	 xml:space="preserve">
<g>
	<path d="M12.726,24.117c1.148,0,1.581,0,1.863-0.119c0.195-0.073,0.881-0.403,0.881-1.521c0-1.058-0.403-1.281-0.73-1.415
		c-0.388-0.151-0.567-0.151-2.014-0.151V24.117z M10.313,19.109h3.606c1.61,0,2.476,0.343,3.056,0.864
		c0.685,0.611,0.999,1.492,0.999,2.579c0,1.698-0.94,2.505-1.431,2.802c-0.79,0.477-1.655,0.522-2.505,0.553l-1.313,0.045v4.098
		h-2.413V19.109z"/>
	<path d="M22.281,26.397c0,1.149,0.224,1.968,1.295,1.968c1.298,0,1.298-1.208,1.298-1.968v-3.799c0-0.761,0-1.687-1.268-1.687
		c-1.325,0-1.325,1.252-1.325,1.687V26.397z M19.836,22.97c0-1.118,0.193-2.191,0.954-3.026c0.685-0.761,1.715-1.044,2.742-1.044
		c1.118,0,2.147,0.269,2.878,1.06c0.609,0.654,0.953,1.625,0.953,3.384v2.652c0,1.536-0.252,2.521-0.939,3.265
		c-0.909,0.984-2.22,1.088-2.921,1.088c-1.074,0-2.832-0.388-3.384-2.237c-0.238-0.774-0.283-1.729-0.283-2.206V22.97z"/>
	<polygon points="30.301,19.109 32.746,19.109 32.746,28.008 37.56,28.008 37.56,30.05 30.301,30.05 	"/>
	<g>
		<path d="M41.142,30.05v-4.323l-3.459-6.617h2.579l1.384,2.728c0.106,0.208,0.539,1.147,0.628,1.34h0.073
			c0.21-0.462,0.255-0.537,0.627-1.312l1.327-2.757h2.548l-3.294,6.528v4.413H41.142z"/>
	</g>
	<polygon points="56.158,19.109 56.158,21.107 53.43,21.107 53.43,30.05 50.927,30.05 50.927,21.107 48.14,21.107 48.14,19.109 	"/>
	<polygon points="58.691,19.109 66.04,19.109 66.04,21.107 61.076,21.107 61.076,23.433 64.49,23.433 64.49,25.43 61.107,25.43 
		61.107,28.008 66.383,28.008 66.383,30.05 58.691,30.05 	"/>
	<g>
		<path d="M68.858,22.791c0-2.503,1.341-3.92,3.89-3.92c0.657,0,1.642,0.134,2.401,0.73c0.983,0.775,1.103,2.117,1.132,2.998h-2.399
			c-0.016-0.537-0.046-1.73-1.238-1.73c-0.298,0-0.672,0.12-0.908,0.343c-0.388,0.357-0.403,0.895-0.403,1.192v4.16
			c0,0.596,0,1.743,1.327,1.743c0.984,0,1.282-0.804,1.282-1.981h2.413c-0.015,0.789-0.027,0.88-0.103,1.34
			c-0.092,0.434-0.238,1.223-1.148,1.953c-0.775,0.627-1.908,0.732-2.385,0.732c-1.268,0-2.146-0.3-2.832-0.971
			c-0.447-0.432-1.028-1.057-1.028-3.294V22.791z"/>
	</g>
	<polygon points="79.487,19.109 81.917,19.109 81.917,23.253 84.987,23.253 84.987,19.109 87.448,19.109 87.448,30.05 85.031,30.05 
		85.031,25.325 81.932,25.325 81.932,30.05 79.487,30.05 	"/>
	<g>
		<path d="M90.729,19.109h2.294l2.816,5.113c0.12,0.224,0.27,0.52,0.374,0.745c0.043,0.09,0.194,0.493,0.237,0.566h0.076
			l-0.059-1.104c-0.045-0.744-0.045-0.835-0.045-1.251v-4.069h2.205v10.94H96.66l-2.907-5.307c-0.238-0.431-0.252-0.475-0.818-1.804
			h-0.075c0.015,0.314,0.075,1.7,0.075,1.984v5.127h-2.206V19.109z"/>
	</g>
	<polygon points="101.506,30.05 101.506,29.081 102.787,29.081 102.787,20.063 101.506,20.063 101.506,19.109 106.498,19.109 
		106.498,20.063 105.202,20.063 105.202,29.052 106.498,29.052 106.498,30.05 	"/>
	<g>
		<path d="M112.552,25.042c0.61,0.089,0.879,0.254,1.147,0.581c0.059,0.075,0.104,0.133,0.193,0.284v-3.31
			c0-0.805-0.046-1.686-1.297-1.686c-1.296,0-1.296,1.298-1.296,1.686v3.801c0,1.177,0.239,1.967,1.311,1.967
			c0.463,0,0.76-0.164,0.955-0.432c-0.343-0.552-0.521-0.701-1.014-0.85V25.042z M117.172,31.063c-0.432,0-0.73,0-1.207-0.223
			c-0.67-0.328-0.953-0.791-1.06-1.132c-0.835,0.565-1.816,0.64-2.384,0.64c-1.073,0-2.831-0.388-3.384-2.236
			c-0.237-0.775-0.281-1.73-0.281-2.206v-2.937c0-1.119,0.191-2.192,0.952-3.027c0.685-0.761,1.713-1.043,2.743-1.043
			c1.117,0,2.146,0.268,2.877,1.058c0.611,0.656,0.953,1.625,0.953,3.384v2.654c0,0.909-0.09,1.639-0.313,2.206
			c0.402,0.506,0.655,0.506,1.103,0.506V31.063z"/>
		<path d="M119.813,19.109h2.489v7.214c0,0.655,0,2.012,1.475,2.012c0.463,0,1.536,0,1.536-1.997v-7.229h2.43v7.244
			c0,0.656-0.014,2.236-1.132,3.145c-0.761,0.612-1.7,0.834-2.699,0.834c-1.147,0-2.324-0.283-2.998-0.908
			c-1.057-0.999-1.101-2.251-1.101-3.235V19.109z"/>
	</g>
	<polygon points="130.857,19.109 138.206,19.109 138.206,21.107 133.243,21.107 133.243,23.433 136.657,23.433 136.657,25.43 
		133.271,25.43 133.271,28.008 138.549,28.008 138.549,30.05 130.857,30.05 	"/>
	<g>
		<path d="M53.649,36.998h3.22l1.296,4.562c0.134,0.493,0.194,0.657,0.313,1.148c0.061,0.223,0.283,1.179,0.329,1.372h0.073
			c0.163-0.91,0.328-1.594,0.596-2.564l1.281-4.517h3.235V47.94h-2.101v-5.888c0-0.774,0.061-2.073,0.104-3.115h-0.061L59.67,47.94
			h-1.652l-2.327-9.003h-0.074c0.015,0.506,0.104,2.727,0.104,3.189v5.814h-2.07V36.998z"/>
		<path d="M69.392,44.287c0,1.148,0.223,1.969,1.297,1.969c1.295,0,1.295-1.208,1.295-1.969v-3.8c0-0.759,0-1.685-1.266-1.685
			c-1.326,0-1.326,1.251-1.326,1.685V44.287z M66.946,40.86c0-1.12,0.194-2.192,0.954-3.026c0.687-0.762,1.714-1.045,2.744-1.045
			c1.117,0,2.146,0.269,2.875,1.059c0.611,0.656,0.954,1.625,0.954,3.384v2.653c0,1.536-0.253,2.519-0.94,3.263
			c-0.908,0.986-2.219,1.089-2.92,1.089c-1.075,0-2.832-0.389-3.383-2.236c-0.239-0.775-0.284-1.728-0.284-2.206V40.86z"/>
		<path d="M77.709,36.998h2.296l2.818,5.114c0.118,0.223,0.267,0.521,0.371,0.744c0.046,0.091,0.193,0.492,0.238,0.567h0.074
			l-0.059-1.104c-0.044-0.745-0.044-0.835-0.044-1.252v-4.07h2.207V47.94h-1.97l-2.905-5.307c-0.239-0.433-0.255-0.477-0.82-1.804
			h-0.075c0.015,0.314,0.075,1.701,0.075,1.983v5.128h-2.207V36.998z"/>
	</g>
	<polygon points="96.508,36.998 96.508,38.996 93.78,38.996 93.78,47.94 91.275,47.94 91.275,38.996 88.487,38.996 88.487,36.998 	
		"/>
	<g>
		<path d="M101.59,41.723c1.356,0,1.565,0,1.91-0.12c0.76-0.267,0.818-0.864,0.818-1.459c0-0.761-0.238-1.132-0.716-1.312
			c-0.372-0.134-0.67-0.134-2.013-0.134V41.723z M101.59,47.94h-2.371V36.998h3.534c1.773,0,4.025,0.239,4.025,3.174
			c0,1.388-0.552,2.445-2.087,2.908l2.386,4.86h-2.609l-2.072-4.471h-0.806V47.94z"/>
	</g>
	<path d="M115.753,33.898l-2.205,2.16h-1.509l1.402-2.16H115.753z M109.79,36.998h7.349v1.999h-4.964v2.325h3.413v1.998h-3.384
		v2.577h5.277v2.044h-7.691V36.998z"/>
	<path d="M124.295,38.952h-0.061l-1.191,4.948h2.458L124.295,38.952z M125.711,36.998l3.159,10.942h-2.34l-0.551-2.177h-3.354
		l-0.566,2.177h-2.341l3.085-10.942H125.711z"/>
	<polygon points="131.286,36.998 133.731,36.998 133.731,45.896 138.547,45.896 138.547,47.94 131.286,47.94 	"/>
</g>
<g>
	<path d="M198.505,38.216c-0.006-0.01-0.034-0.012-0.042-0.002c-0.168,0.19-0.418,0.375-0.752,0.376
		c0.17,0.406,0.309,0.918,0.309,1.464c0,0.549-0.069,1.372-0.301,1.915c0.377-0.029,0.754-0.042,0.754-0.042
		s0.339,0.011,0.774,0.043c-0.229-0.542-0.296-1.366-0.296-1.913c0-0.546,0.136-1.061,0.307-1.466
		C198.925,38.59,198.672,38.407,198.505,38.216z"/>
	<path d="M194.953,35.801c0.664,0.396,1.274,0.803,1.711,1.535c-0.199,0.082-0.408,0.171-0.627,0.28
		c-2.057,1.013-1.641,4.552,0.173,4.602c0.238-0.039,0.501-0.076,0.759-0.102c0.225-0.425,0.369-0.894,0.447-1.361
		c-0.137,0.253-0.357,0.418-0.605,0.418c-0.419,0-0.755-0.465-0.755-1.042c0-0.576,0.336-1.042,0.755-1.042
		c0.289,0,0.54,0.223,0.665,0.548c-0.03-0.561-0.164-1.069-0.376-1.442c-0.037-0.065-0.031-0.147,0.016-0.206
		s0.127-0.081,0.198-0.058c0.635,0.212,1.024-0.433,1.044-0.46c0.025-0.046,0.063-0.084,0.123-0.084
		c0.059,0,0.102,0.035,0.132,0.087c0.019,0.024,0.409,0.67,1.04,0.459c0.072-0.024,0.153-0.002,0.199,0.057
		c0.047,0.058,0.054,0.14,0.018,0.207c-0.213,0.373-0.346,0.881-0.379,1.442c0.127-0.327,0.379-0.548,0.668-0.548
		c0.414,0,0.756,0.467,0.756,1.042c0,0.575-0.342,1.041-0.756,1.041c-0.249,0-0.47-0.164-0.605-0.418
		c0.078,0.47,0.223,0.937,0.448,1.361c0.257,0.027,0.519,0.063,0.758,0.105c1.813-0.052,2.23-3.592,0.174-4.603
		c-0.222-0.109-0.431-0.198-0.63-0.28c0.436-0.731,1.047-1.139,1.711-1.534c0.752-0.447,1.404-0.861,1.926-1.722
		c0.051-0.086,0.024-0.196-0.061-0.248c-0.086-0.054-0.197-0.027-0.25,0.059c-0.476,0.781-1.15,1.152-1.844,1.56
		c-0.705,0.415-1.459,0.826-1.948,1.7c-0.546-0.215-0.987-0.413-1.323-0.839c-0.015-0.015-0.041-0.021-0.055-0.001
		c-0.34,0.425-0.782,0.624-1.327,0.839c-0.487-0.874-1.243-1.286-1.949-1.702c-0.691-0.405-1.366-0.777-1.842-1.557
		c-0.053-0.086-0.164-0.114-0.251-0.063c-0.086,0.051-0.113,0.165-0.061,0.251C193.553,34.939,194.201,35.354,194.953,35.801z"/>
	<path d="M213.289,50.426c0.108-0.254,0.141-0.971-0.117-1.222c-0.457-0.447-1.115-0.592-1.115-0.592s0.14-0.348-0.209-0.732
		c-0.358-0.394-2.794-1.723-3.35-1.918c-0.696-0.245-2.788-0.906-3.449-1.045c-0.226-0.047-0.615-0.124-1.085-0.204
		c-0.235-0.235-0.454-0.446-0.667-0.636c1.461-1.167,2.448-2.619,2.472-3.078c0.026-0.523-0.235-0.654-0.235-0.654
		s0.44-0.184,0.313-0.524c-0.26-0.701-0.338-2.223-0.338-2.223s0.338-0.262,0.836-0.235c-0.133-0.313-0.393-0.471-0.63-0.443
		c-0.231,0.027-0.366,0.13-0.521,0.26c-0.155,0.131-0.107,0.499-0.107,0.733c0,0.235,0.025,1.237-0.102,1.622
		c-0.21,0.627-0.21,0.916,0.027,1.153c-0.072,0.234-1.932,1.878-2.805,2.595c-0.736-0.402-1.59-0.595-2.938-0.646v-0.019h-0.756
		c-0.073,0-0.136,0.001-0.205,0.002h-0.609v0.014c-1.35,0.051-2.203,0.245-2.938,0.646c-0.873-0.715-2.732-2.359-2.803-2.596
		c0.235-0.235,0.235-0.522,0.025-1.152c-0.127-0.384-0.105-1.384-0.105-1.621c0-0.233,0.056-0.6-0.104-0.731
		c-0.155-0.133-0.288-0.235-0.521-0.26c-0.237-0.027-0.5,0.127-0.628,0.443c0.497-0.027,0.835,0.235,0.835,0.235
		s-0.078,1.521-0.338,2.223c-0.127,0.337,0.313,0.522,0.313,0.522s-0.263,0.129-0.237,0.655c0.024,0.459,1.012,1.91,2.473,3.079
		c-0.212,0.19-0.43,0.4-0.664,0.635c-0.472,0.08-0.86,0.156-1.088,0.203c-0.66,0.141-2.754,0.803-3.451,1.044
		c-0.553,0.195-2.989,1.526-3.349,1.92c-0.348,0.384-0.208,0.732-0.208,0.732s-0.657,0.145-1.115,0.593
		c-0.259,0.251-0.227,0.967-0.117,1.221c0.096,0.225,0.358,0.209,0.358,0.209s-0.174-1.155,0.771-1.289
		c0.486-0.071,0.869-0.036,0.869-0.036s1.361-0.836,1.744-1.012c0.385-0.174,1.117-1.325,1.117-1.325s0.574,0.255,1.098,0.255
		c0.356,0,1.393-0.695,2.021-1.143l-0.158,0.162l1.685,0.084c0.098,0.004,0.212,0.007,0.334,0.007c0.173,0,0.362-0.005,0.534-0.01
		c-1.851,1.971-3.533,3.094-5.172,4.184c-1.706,1.137-3.314,2.209-4.998,4.139c-1.588,1.825-2.174,3.105-1.789,3.915
		c0.273,0.567,0.977,0.835,2.093,0.795c3.251-0.115,5.231-0.742,5.914-1.861c-0.073,0.347-0.116,0.737-0.122,1.179
		c-0.881,1.455-1.326,2.553-1.59,3.552c-0.162,0.617-0.01,0.823,0.391,1.12c-0.313,0.679-0.248,1.384-0.681,1.622
		c-1.046,0.574-0.573,0.941-0.573,0.941l0.994-0.158l0.836-2.145c0,0,0.18,0.033,0.324-0.065c0.591-0.409,0.146-1.889,1.191-4.067
		c0.42,0.104,0.472-0.158,0.577-1.151c0.038-0.384,0.1-0.85,0.175-1.317c0.7-0.201,1.254-0.478,1.697-0.812
		c0.082,3.48,1.151,6.043,2.044,7.588c1.036,1.795,2.322,3.047,3.129,3.047s2.093-1.252,3.133-3.045
		c0.892-1.542,1.956-4.099,2.04-7.572c0.441,0.327,0.99,0.596,1.678,0.794c0.075,0.467,0.136,0.933,0.178,1.319
		c0.105,0.994,0.156,1.253,0.576,1.15c1.045,2.177,0.602,3.659,1.191,4.066c0.144,0.101,0.326,0.065,0.326,0.065l0.834,2.146
		l0.994,0.156c0,0,0.471-0.367-0.574-0.939c-0.434-0.24-0.367-0.943-0.68-1.623c0.4-0.298,0.551-0.502,0.388-1.121
		c-0.265-0.999-0.707-2.097-1.589-3.55c-0.004-0.443-0.048-0.835-0.121-1.183c0.682,1.121,2.664,1.749,5.912,1.865
		c1.121,0.04,1.822-0.228,2.094-0.795c0.387-0.811-0.201-2.091-1.787-3.916c-1.68-1.93-3.293-3.002-4.998-4.138
		c-1.639-1.092-3.322-2.214-5.174-4.187c0.292,0.009,0.633,0.015,0.869,0.003l1.686-0.086l-0.152-0.156
		c0.631,0.448,1.66,1.138,2.015,1.138c0.524,0,1.099-0.254,1.099-0.254s0.732,1.151,1.116,1.324
		c0.384,0.175,1.744,1.013,1.744,1.013s0.385-0.036,0.872,0.034c0.941,0.134,0.768,1.291,0.768,1.291S213.19,50.651,213.289,50.426z
		 M198.463,53.234c1.049,0,2.035,0.035,2.93,0.103l0.351,0.049c0.046,0.116,0.091,0.232,0.144,0.351
		c0.148,0.339,0.309,0.671,0.49,0.99c-2.644,0.428-5.201,0.429-7.796,0.014c0.188-0.323,0.349-0.661,0.501-1.005
		c0.052-0.116,0.096-0.23,0.139-0.344l0.355-0.055C196.461,53.27,197.432,53.236,198.463,53.234z M194.042,57.436
		c-0.046-0.47-0.073-0.959-0.079-1.469c2.672,0.515,6.306,0.485,9.063,0.003c-0.006,0.505-0.033,0.991-0.078,1.457
		C200.057,57.861,196.876,57.861,194.042,57.436z M202.768,58.741c-0.093,0.507-0.204,0.984-0.33,1.434
		c-2.576,0.338-5.353,0.337-7.885,0.009c-0.126-0.451-0.239-0.932-0.332-1.443C196.85,59.156,200.06,59.13,202.768,58.741z
		 M185.587,58.761c0.265-1.112,1.179-3.28,3.288-5.583c0.028-0.03,0.03-0.074,0.004-0.104c-0.031-0.029-0.073-0.029-0.105-0.002
		c-2.49,2.17-3.501,4.595-3.77,5.737c-0.269,0.018-0.544,0.034-0.834,0.044c-0.615,0.023-1.396-0.045-1.616-0.506
		c-0.034-0.075-0.063-0.178-0.063-0.317c0-0.48,0.329-1.384,1.775-3.045c1.637-1.877,3.355-2.777,5.033-3.895
		c1.935-1.288,3.686-2.132,5.945-4.818c-0.025,0.4-0.057,0.864-0.057,1.1c0,0.471,0.027,0.931,0.053,1.384
		c0.025,0.455,0.053,0.917,0.053,1.389c0,1.044-0.129,2.148-0.676,3.386c-0.679,1.537-1.477,2.841-4.213,3.218
		c0.494-1.913,1.57-4.26,2.604-5.464c0.027-0.03,0.027-0.074-0.004-0.102c-0.029-0.027-0.074-0.025-0.102,0.005
		c-1.343,1.345-2.592,3.785-3.081,5.737c-0.009,0.016-0.017,0.03-0.022,0.046C189.482,57.914,188.033,58.524,185.587,58.761z
		 M198.493,66.191c-0.225,0-1.046-0.465-2.022-1.862c1.23,0.058,2.816,0.054,4.055-0.007
		C199.549,65.724,198.719,66.191,198.493,66.191z M201.34,62.968c-1.884,0.145-3.822,0.148-5.686,0.007
		c-0.219-0.419-0.439-0.896-0.648-1.43c2.113,0.238,4.822,0.225,6.979-0.007C201.777,62.072,201.557,62.549,201.34,62.968z
		 M207.67,51.092c1.675,1.116,3.396,2.017,5.031,3.896c1.448,1.659,1.776,2.563,1.776,3.043c0,0.14-0.028,0.242-0.064,0.316
		c-0.219,0.46-0.999,0.528-1.614,0.507c-0.291-0.01-0.564-0.026-0.832-0.044c-0.271-1.138-1.279-3.567-3.775-5.736
		c-0.029-0.027-0.074-0.027-0.101,0c-0.028,0.029-0.024,0.074,0.001,0.104c2.112,2.304,3.026,4.471,3.29,5.584
		c-2.446-0.237-3.896-0.848-4.21-1.792c-0.008-0.021-0.018-0.041-0.029-0.058c-0.49-1.95-1.74-4.383-3.077-5.726
		c-0.028-0.03-0.073-0.031-0.101-0.005c-0.029,0.027-0.031,0.074-0.004,0.104c1.034,1.203,2.111,3.549,2.604,5.463
		c-2.736-0.378-3.535-1.683-4.214-3.22c-0.546-1.238-0.677-2.341-0.677-3.386c0-0.472,0.026-0.934,0.055-1.389
		c0.024-0.452,0.049-0.913,0.049-1.38c0-0.238-0.029-0.704-0.055-1.103C203.984,48.959,205.736,49.805,207.67,51.092z"/>
	<path d="M198.493,30.513c-11.948,0-21.67,9.722-21.67,21.672c0,11.95,9.722,21.673,21.67,21.673
		c11.952,0,21.674-9.723,21.674-21.673C220.167,40.235,210.445,30.513,198.493,30.513z M198.493,73.118
		c-11.541,0-20.929-9.39-20.929-20.933c0-11.542,9.388-20.931,20.929-20.931c11.542,0,20.933,9.389,20.933,20.931
		C219.426,63.728,210.035,73.118,198.493,73.118z"/>
	<path d="M198.112,102.304c0.102,0.102,0.235,0.156,0.377,0.156s0.274-0.055,0.377-0.156l2.366-2.365
		c0.205-0.211,0.203-0.543-0.002-0.754l-2.365-2.365c-0.098-0.094-0.232-0.148-0.376-0.148c-0.145,0-0.279,0.055-0.378,0.148
		l-2.363,2.367c-0.207,0.209-0.207,0.545,0,0.752L198.112,102.304z M198.489,97.304l2.261,2.26l-2.261,2.258l-2.259-2.258
		L198.489,97.304z"/>
	<path d="M183.348,32.981c-0.729,0.576-1.422,1.191-2.079,1.844c-1.608-1.26-2.583-2.005-2.591-2.013
		c-0.105-0.09-0.241-0.141-0.383-0.141c-0.184,0-0.363,0.083-0.487,0.229l-1.29,1.482c-0.231,0.265-0.215,0.658,0.034,0.877
		c0.009,0.01,0.88,0.867,2.351,2.284c-0.569,0.758-1.094,1.551-1.572,2.373c-1.876-0.793-3.009-1.257-3.021-1.261
		c-0.076-0.039-0.16-0.058-0.248-0.058c-0.238,0-0.461,0.146-0.568,0.369l-0.858,1.767c-0.153,0.317-0.035,0.693,0.261,0.838
		c0.012,0.007,1.072,0.604,2.859,1.583c-0.345,0.862-0.639,1.747-0.884,2.653c-2.015-0.281-3.222-0.434-3.233-0.436
		c-0.037-0.007-0.073-0.011-0.109-0.011c-0.292,0-0.545,0.221-0.604,0.523l-0.371,1.93c-0.066,0.346,0.146,0.678,0.471,0.741
		c0.012,0.003,1.192,0.304,3.166,0.79c-0.104,0.902-0.16,1.819-0.164,2.748c-2.02,0.246-3.227,0.404-3.24,0.406
		c-0.328,0.023-0.578,0.327-0.553,0.677l0.136,1.959c0.022,0.335,0.286,0.597,0.602,0.597c0.015,0,0.028,0,0.041-0.001
		c0.013,0,1.233-0.008,3.265-0.044c0.139,0.956,0.33,1.892,0.574,2.808c-1.882,0.762-3.007,1.23-3.017,1.235
		c-0.314,0.111-0.475,0.471-0.358,0.802l0.645,1.855c0.091,0.262,0.326,0.436,0.59,0.436c0.064,0,0.127-0.01,0.188-0.031
		c0.014-0.004,1.186-0.329,3.139-0.897c0.367,0.846,0.779,1.67,1.236,2.463c-1.625,1.225-2.59,1.967-2.6,1.975
		c-0.13,0.087-0.215,0.221-0.245,0.375c-0.033,0.17,0.003,0.346,0.103,0.492l1.103,1.626c0.122,0.182,0.319,0.291,0.53,0.291
		c0.115,0,0.227-0.033,0.323-0.098c0.011-0.008,1.065-0.626,2.808-1.679c0.576,0.726,1.189,1.419,1.842,2.074
		c-1.258,1.605-2.002,2.576-2.01,2.584c-0.219,0.258-0.181,0.639,0.089,0.873l1.479,1.287c0.124,0.109,0.277,0.168,0.434,0.168
		c0.172,0,0.334-0.072,0.446-0.199c0.009-0.01,0.864-0.879,2.278-2.346c0.766,0.574,1.566,1.102,2.396,1.584
		c-0.794,1.873-1.255,3-1.258,3.012c-0.069,0.141-0.079,0.301-0.024,0.447c0.057,0.162,0.174,0.295,0.334,0.373l1.77,0.857
		c0.091,0.043,0.186,0.066,0.287,0.066c0.239,0,0.45-0.127,0.547-0.332c0.008-0.012,0.604-1.07,1.583-2.85
		c0.854,0.34,1.733,0.631,2.632,0.875c-0.28,2.01-0.438,3.211-0.439,3.223c-0.029,0.154,0.004,0.313,0.094,0.443
		c0.094,0.143,0.246,0.238,0.418,0.271l1.929,0.371c0.044,0.008,0.086,0.012,0.128,0.012c0.302,0,0.56-0.201,0.614-0.48
		c0.002-0.012,0.308-1.193,0.792-3.162c0.284,0.033,0.57,0.063,0.857,0.086v4.611c0,0.928-3.161,1.234-5.396,1.482l-0.83,0.094
		c-1.303,0.15-2.217,0.559-2.709,1.213c-0.452,0.604-0.369,1.186-0.36,1.248h0.052h22.444h0.055
		c0.008-0.063,0.093-0.645-0.362-1.248c-0.492-0.654-1.402-1.063-2.707-1.213l-0.832-0.094c-2.234-0.248-5.396-0.555-5.396-1.482
		V80.86l-0.943,0.064c-0.027,0.002-0.054,0.002-0.082,0.002c-0.579,0-1.064-0.432-1.113-0.986c-0.016-0.127-0.176-1.34-0.412-3.293
		c0.162,0.004,0.326,0.006,0.49,0.006c0.245,2.016,0.402,3.225,0.402,3.236c0.025,0.311,0.303,0.555,0.633,0.555
		c0.017,0,0.032-0.002,0.047-0.002l1.959-0.137c0.177-0.012,0.341-0.094,0.452-0.221c0.104-0.119,0.153-0.268,0.144-0.42
		c0-0.014-0.008-1.232-0.045-3.262c0.949-0.137,1.881-0.328,2.79-0.57c0.758,1.883,1.224,3.004,1.229,3.018
		c0.084,0.236,0.314,0.395,0.58,0.395c0.074,0,0.148-0.014,0.221-0.039l1.855-0.643c0.167-0.057,0.299-0.172,0.376-0.326
		c0.071-0.143,0.083-0.305,0.03-0.451c-0.004-0.014-0.328-1.186-0.894-3.135c0.851-0.369,1.679-0.783,2.478-1.242
		c1.221,1.625,1.963,2.592,1.971,2.6c0.107,0.162,0.295,0.258,0.495,0.258c0.132,0,0.262-0.041,0.372-0.115l1.627-1.102
		c0.146-0.098,0.246-0.244,0.278-0.41c0.032-0.156,0.001-0.314-0.085-0.443c-0.008-0.014-0.628-1.064-1.68-2.807
		c0.729-0.578,1.425-1.193,2.084-1.848c1.605,1.254,2.576,1.996,2.588,2.004c0.104,0.092,0.239,0.141,0.381,0.141
		c0.186,0,0.365-0.082,0.489-0.229l1.29-1.482c0.116-0.135,0.176-0.309,0.162-0.477c-0.012-0.158-0.084-0.299-0.197-0.398
		c-0.011-0.01-0.878-0.866-2.346-2.278c0.566-0.759,1.093-1.554,1.57-2.376c1.875,0.795,2.999,1.26,3.01,1.264
		c0.08,0.039,0.163,0.059,0.25,0.059c0.236,0,0.463-0.146,0.574-0.371l0.854-1.766c0.153-0.322,0.038-0.691-0.262-0.84
		c-0.012-0.006-1.07-0.603-2.85-1.583c0.343-0.862,0.637-1.748,0.883-2.655c2.012,0.283,3.215,0.438,3.229,0.441
		c0.037,0.007,0.072,0.01,0.107,0.01c0.293,0,0.547-0.219,0.605-0.522l0.369-1.93c0.031-0.173-0.004-0.353-0.1-0.494
		c-0.089-0.13-0.221-0.218-0.371-0.246c-0.014-0.003-1.189-0.308-3.162-0.796c0.105-0.903,0.16-1.82,0.164-2.75
		c2.017-0.248,3.223-0.408,3.236-0.409c0.33-0.023,0.58-0.328,0.555-0.68l-0.135-1.956c-0.025-0.335-0.291-0.598-0.605-0.598
		c-0.014,0-0.027,0-0.042,0.002c-0.013,0-1.229,0.008-3.261,0.047c-0.139-0.954-0.331-1.89-0.576-2.804
		c1.883-0.768,3.007-1.238,3.018-1.243c0.312-0.109,0.471-0.469,0.359-0.802l-0.646-1.854c-0.09-0.262-0.326-0.438-0.589-0.438
		c-0.063,0-0.126,0.01-0.187,0.031c-0.014,0.004-1.186,0.332-3.143,0.901c-0.367-0.846-0.779-1.667-1.236-2.46
		c1.627-1.226,2.592-1.973,2.602-1.979c0.129-0.087,0.215-0.221,0.245-0.376c0.032-0.17-0.003-0.344-0.104-0.49l-1.1-1.628
		c-0.121-0.182-0.321-0.29-0.533-0.29c-0.115,0-0.229,0.034-0.324,0.098c-0.012,0.007-1.061,0.628-2.81,1.686
		c-0.573-0.726-1.187-1.417-1.839-2.073c1.26-1.608,2.002-2.583,2.01-2.593c0.1-0.116,0.151-0.266,0.142-0.423
		c-0.013-0.173-0.095-0.333-0.229-0.45l-1.482-1.287c-0.123-0.106-0.275-0.165-0.432-0.165c-0.173,0-0.336,0.072-0.445,0.198
		c-0.01,0.009-0.865,0.881-2.282,2.354c-0.765-0.572-1.563-1.1-2.392-1.581c0.793-1.878,1.253-3.009,1.258-3.021
		c0.068-0.139,0.078-0.298,0.025-0.448c-0.055-0.16-0.178-0.296-0.336-0.372l-1.77-0.856c-0.091-0.044-0.191-0.067-0.291-0.067
		c-0.238,0-0.446,0.127-0.545,0.332c-0.006,0.012-0.604,1.074-1.583,2.859c-0.854-0.339-1.731-0.63-2.628-0.872
		c0.282-2.015,0.438-3.227,0.438-3.239c0.03-0.16-0.009-0.32-0.105-0.454c-0.097-0.134-0.243-0.225-0.411-0.256l-1.928-0.374
		c-0.042-0.007-0.084-0.012-0.127-0.012c-0.301,0-0.559,0.204-0.612,0.483c-0.006,0.013-0.308,1.192-0.792,3.173
		c-0.288-0.034-0.575-0.063-0.865-0.086v-4.61c0-0.928,3.162-1.236,5.396-1.483l0.832-0.093c1.305-0.15,2.215-0.559,2.707-1.214
		c0.455-0.604,0.37-1.184,0.362-1.247h-0.055h-22.444h-0.052c-0.009,0.063-0.092,0.644,0.36,1.247
		c0.492,0.655,1.406,1.064,2.709,1.214l0.83,0.093c2.235,0.247,5.396,0.555,5.396,1.483V23.5l0.95-0.066
		c0.028-0.001,0.051-0.002,0.077-0.002c0.583,0,1.07,0.433,1.115,0.989c0.02,0.144,0.184,1.358,0.422,3.302
		c-0.164-0.004-0.326-0.006-0.488-0.006c-0.25-2.021-0.414-3.232-0.416-3.245c-0.021-0.312-0.297-0.556-0.633-0.556
		c-0.015,0-0.028,0-0.045,0.001l-1.957,0.138c-0.176,0.012-0.343,0.094-0.453,0.224c-0.104,0.12-0.153,0.268-0.143,0.419
		c0.002,0.014,0.012,1.23,0.051,3.27c-0.946,0.136-1.875,0.327-2.784,0.568c-0.763-1.887-1.234-3.009-1.24-3.021
		c-0.081-0.239-0.316-0.399-0.583-0.399c-0.073,0-0.148,0.012-0.221,0.037l-1.853,0.643c-0.332,0.116-0.515,0.465-0.405,0.778
		c0.004,0.013,0.328,1.189,0.898,3.145c-0.85,0.368-1.676,0.782-2.473,1.24c-1.227-1.627-1.973-2.595-1.982-2.605
		c-0.105-0.161-0.289-0.257-0.494-0.257c-0.131,0-0.261,0.04-0.372,0.115l-1.624,1.101c-0.148,0.1-0.248,0.247-0.279,0.415
		c-0.031,0.155,0,0.312,0.086,0.44C181.67,30.179,182.291,31.233,183.348,32.981z M198.493,75.03
		c-12.595,0-22.841-10.249-22.841-22.845c0-12.595,10.246-22.843,22.841-22.843c12.597,0,22.845,10.248,22.845,22.843
		C221.338,64.782,211.09,75.03,198.493,75.03z"/>
	<path d="M176.446,103.077c-0.134,0.041-0.272,0.084-0.423,0.123l-0.011,0.002l-0.002-0.01c-0.247-1.262-0.458-2.387-0.644-3.432
		l-0.003-0.008l0.009-0.004c0.18-0.061,0.328-0.107,0.457-0.141c-0.008-0.049-0.045-0.256-0.052-0.348
		c-0.627,0.207-1.196,0.404-1.791,0.621l0.001,0.01c0.021,0.111,0.041,0.229,0.053,0.334l0.477-0.162l0.004,0.012
		c0.187,0.982,0.381,1.994,0.662,3.43v0.006l-0.008,0.002c-0.127,0.045-0.265,0.098-0.434,0.16l-0.004,0.004l-0.002-0.004
		c0.011,0.053,0.047,0.234,0.063,0.326c0.654-0.242,1.228-0.434,1.749-0.588c-0.023-0.113-0.047-0.23-0.059-0.348L176.446,103.077z"
		/>
	<path d="M179.768,100.288l-0.034-0.236c-0.098-0.648-0.271-1.041-0.565-1.275c-0.213-0.172-0.475-0.26-0.784-0.26
		c-0.124,0-0.259,0.014-0.394,0.043c-0.451,0.086-0.814,0.314-1.021,0.641c-0.214,0.344-0.274,0.732-0.196,1.262
		c0.029,0.176,0.058,0.352,0.085,0.521l0.097,0.621c0.034,0.232,0.125,0.576,0.245,0.814c0.256,0.5,0.735,0.605,1.093,0.605
		c0.115,0,0.236-0.01,0.352-0.033c0.508-0.094,0.857-0.287,1.07-0.594c0.213-0.311,0.262-0.688,0.172-1.305
		C179.844,100.8,179.799,100.511,179.768,100.288z M178.563,102.269c-0.043,0.008-0.086,0.012-0.125,0.012
		c-0.366,0-0.47-0.332-0.529-0.693c-0.029-0.188-0.059-0.381-0.086-0.57l-0.015-0.088c-0.044-0.281-0.089-0.57-0.129-0.824v-0.008
		c-0.021-0.166-0.083-0.676,0.447-0.779c0.055-0.01,0.106-0.016,0.154-0.016c0.377,0,0.427,0.336,0.468,0.607l0.004,0.035
		c0.072,0.477,0.146,0.971,0.222,1.457C179.018,101.706,179.087,102.169,178.563,102.269z"/>
	<path d="M169.072,101.905c0.111,0.51,0.521,2.215,0.559,2.357l0.004,0.004l-0.008,0.008h-0.005c-0.009,0-0.059-0.047-1.233-1.227
		c-0.217-0.217-0.418-0.42-0.553-0.555c-0.09,0.043-0.18,0.086-0.27,0.127c-0.176,0.082-0.355,0.168-0.531,0.248
		c0.342,1.436,0.648,2.699,0.967,3.975c0.244-0.121,0.482-0.238,0.723-0.346c-0.044-0.184-0.631-2.541-0.639-2.588l-0.003-0.012
		h0.012c0.007,0,0.015,0.002,0.905,0.912c0.469,0.475,0.933,0.947,1.043,1.061c0.186-0.088,0.427-0.199,0.664-0.295
		c-0.311-1.371-0.59-2.686-0.861-4.014C169.763,101.599,169.225,101.845,169.072,101.905z"/>
	<path d="M173.614,102.497c-0.171-0.156-0.452-0.26-0.753-0.279l-0.541-0.041c-0.273-0.023-0.568-0.074-0.605-0.373
		c-0.008-0.053-0.029-0.32,0.258-0.492c0.059-0.027,0.123-0.055,0.188-0.072c0.066-0.021,0.137-0.031,0.207-0.031
		c0.226,0,0.433,0.105,0.555,0.289l0.596-0.602c-0.286-0.277-0.596-0.414-0.951-0.414c-0.146,0-0.306,0.023-0.473,0.07
		c-0.156,0.045-0.297,0.105-0.427,0.174c-0.013,0.01-0.022,0.018-0.034,0.021l-0.016,0.01c-0.497,0.293-0.75,0.777-0.676,1.305
		c0.107,0.795,0.683,0.918,1.312,0.98c0.665,0.066,0.841,0.098,0.884,0.416c0.042,0.307-0.171,0.48-0.303,0.557l-0.032,0.021
		c-0.06,0.031-0.118,0.057-0.169,0.07c-0.08,0.021-0.159,0.033-0.232,0.033c-0.255,0-0.473-0.131-0.612-0.371l-0.614,0.623
		c0.29,0.348,0.574,0.498,0.951,0.498c0.18,0,0.389-0.035,0.639-0.105c0.117-0.033,0.265-0.098,0.396-0.17l0.043-0.025
		c0.129-0.08,0.227-0.154,0.302-0.229c0.521-0.502,0.445-1.041,0.421-1.221C173.881,102.778,173.691,102.569,173.614,102.497z"/>
	<path d="M154.82,108.276c-0.24,0.064-0.783,0.195-0.862,0.215c0.239,0.775,0.487,1.566,0.728,2.332l0.111,0.352
		c0.098,0.303,0.102,0.537,0.012,0.695c-0.093,0.162-0.264,0.205-0.34,0.223h-0.004c-0.059,0.014-0.111,0.02-0.16,0.02
		c-0.428,0-0.578-0.469-0.643-0.672c-0.261-0.807-0.564-1.754-0.839-2.67c-0.281,0.057-0.583,0.117-0.897,0.16
		c0.3,0.957,0.606,1.908,0.839,2.633c0.126,0.4,0.302,0.852,0.795,1.139c0.18,0.104,0.417,0.16,0.685,0.16
		c0.162,0,0.336-0.021,0.506-0.061c0.394-0.098,0.682-0.289,0.861-0.57c0.291-0.451,0.102-1.053,0.028-1.281
		C155.389,110.147,155.098,109.202,154.82,108.276z"/>
	<path d="M157.611,108.087l0.008-0.004c0.109-0.045,0.711-0.283,0.908-0.355l-0.185-0.713c-0.979,0.404-1.858,0.732-2.694,1.004
		c0.02,0.07,0.154,0.535,0.195,0.711c0.161-0.055,0.309-0.105,0.447-0.152c0.174-0.061,0.336-0.117,0.496-0.168l0.01-0.004
		l0.002,0.01c0.308,1.082,0.628,2.195,0.954,3.309c0.205-0.076,0.722-0.275,0.792-0.303c-0.344-1.199-0.648-2.289-0.932-3.326
		L157.611,108.087z"/>
	<path d="M162.991,105.681l-0.004-0.016c-0.044-0.158-0.151-0.568-0.173-0.691c-1.146,0.557-1.957,0.936-2.707,1.264
		c0.045,0.158,0.17,0.629,0.19,0.707l0.136-0.061c0.26-0.119,0.531-0.242,0.807-0.361l0.01-0.004l0.004,0.012
		c0.26,0.939,0.543,1.945,0.916,3.256c0.243-0.115,0.728-0.344,0.793-0.373c-0.292-1.051-0.603-2.17-0.893-3.289l-0.001-0.008
		l0.006-0.002C162.083,106.112,162.79,105.769,162.991,105.681z"/>
	<path d="M167.035,106.544c-0.562,0.275-1.793,0.883-1.793,0.883l-0.01,0.004l-0.1-0.393c-0.047-0.188-0.098-0.377-0.138-0.578
		l-0.001-0.008l0.007-0.002c0.153-0.076,0.907-0.451,1.142-0.559c-0.016-0.066-0.123-0.521-0.158-0.709
		c-0.226,0.109-1.17,0.563-1.178,0.568l-0.012,0.006l-0.033-0.135c-0.03-0.127-0.063-0.256-0.094-0.383l-0.084-0.367l0.123-0.061
		c0.524-0.26,1.065-0.527,1.603-0.775l-0.067-0.291c-0.034-0.137-0.068-0.283-0.088-0.422c-0.433,0.209-0.869,0.424-1.291,0.629
		l-0.041,0.02c-0.389,0.191-0.8,0.393-1.209,0.584c0.402,1.586,0.729,2.852,1.029,3.986l0.734-0.369
		c0.527-0.27,1.186-0.604,1.816-0.908l-0.043-0.193C167.104,106.884,167.063,106.712,167.035,106.544z"/>
	<path d="M227.846,101.87c-0.602-0.271-1.854-0.787-1.971-0.834l-0.111,0.309c0.136,0.047,0.518,0.211,0.521,0.215l0.008,0.002
		l-0.001,0.008l-0.977,3.342l-0.01-0.002l-0.479-0.174l-0.103,0.342c0.603,0.217,1.242,0.471,1.955,0.781l0.101-0.318
		c-0.116-0.055-0.516-0.232-0.52-0.234l-0.006-0.004l0.002-0.008c0.377-1.422,0.672-2.424,0.979-3.346l0.004-0.01l0.008,0.004
		c0.104,0.039,0.451,0.178,0.511,0.203L227.846,101.87z"/>
	<path d="M235.75,105.743c-0.379,0.5-1.811,2.422-1.823,2.443l-0.019,0.023v-0.029c0-0.025,0.069-2.477,0.107-3.285
		c-0.063-0.031-0.65-0.344-0.892-0.492c-0.004,0.256-0.045,3.389-0.089,4.637c0.064,0.033,0.692,0.359,0.944,0.488l2.644-3.369
		C236.421,106.071,235.822,105.778,235.75,105.743z"/>
	<path d="M237.863,108.351l0.432-1.121l0.01,0.002l0.46,0.199l0.138-0.32l-1.863-0.768l-0.145,0.33l0.509,0.215l-0.002,0.01
		l-1.245,3.346l-0.009-0.002l-0.458-0.184c-0.017,0.041-0.079,0.207-0.115,0.281c0.553,0.256,1.163,0.52,1.811,0.783l0.13-0.311
		l-0.487-0.217l0.002-0.008C237.298,109.876,237.582,109.114,237.863,108.351z"/>
	<path d="M229.822,102.771c-0.237-0.102-0.459-0.154-0.658-0.164h-0.04c-0.519,0-0.89,0.348-1.073,0.998l-0.341,1.215
		c-0.231,0.824-0.074,1.141,0.026,1.352c0.176,0.34,0.456,0.582,0.908,0.781c0.143,0.057,0.36,0.125,0.586,0.131l0.046,0.002
		c0.104,0.002,0.2-0.016,0.288-0.041c0.379-0.123,0.515-0.379,0.605-0.547l0.006-0.012c0.062-0.135,0.081-0.178,0.164-0.42
		l-0.826-0.375c-0.115,0.402-0.275,0.59-0.504,0.59c-0.062-0.004-0.129-0.021-0.197-0.049c-0.492-0.209-0.377-0.643-0.312-0.877
		l0.434-1.545c0.032-0.107,0.095-0.307,0.279-0.383c0.048-0.018,0.101-0.029,0.166-0.029h0.021c0.07,0.004,0.14,0.02,0.199,0.041
		c0.22,0.094,0.441,0.314,0.273,0.834l0.824,0.373c0.092-0.373,0.159-0.85-0.096-1.248
		C230.364,103.022,229.979,102.833,229.822,102.771z"/>
	<path d="M240.379,108.411h0.025c0.059,0.004,0.121,0.014,0.187,0.033c0.336,0.098,0.513,0.402,0.538,0.654l0.791-0.223
		c-0.166-0.582-0.509-0.932-1.074-1.094c-0.162-0.047-0.316-0.072-0.464-0.078l-0.05-0.002c-0.557,0-0.998,0.309-1.178,0.822
		c-0.275,0.791,0.164,1.215,0.679,1.615c0.545,0.424,0.681,0.547,0.571,0.859c-0.08,0.23-0.26,0.348-0.533,0.35
		c-0.063-0.002-0.132-0.014-0.197-0.029c-0.359-0.109-0.564-0.383-0.572-0.771l-0.823,0.234c0.144,0.783,0.546,1.043,1.19,1.225
		c0.123,0.035,0.275,0.061,0.417,0.064c0.022,0,0.05,0,0.074,0c0.009,0,0.017,0,0.024,0c0.115,0,0.226-0.014,0.324-0.037
		c0.681-0.18,0.871-0.715,0.931-0.891c0.134-0.389,0.04-0.701,0.021-0.762c-0.088-0.271-0.324-0.521-0.516-0.664l-0.447-0.332
		c-0.245-0.186-0.456-0.381-0.356-0.672C239.977,108.62,240.09,108.411,240.379,108.411z"/>
	<path d="M223.966,102.032l-0.43-0.33c-0.216-0.168-0.438-0.369-0.335-0.66h0.001c0.01-0.033,0.104-0.309,0.436-0.309
		c0.063,0.004,0.126,0.014,0.19,0.031c0.286,0.086,0.49,0.342,0.513,0.646l0.765-0.225c-0.157-0.576-0.482-0.918-1.025-1.078
		c-0.15-0.045-0.297-0.068-0.433-0.072h-0.055c-0.546-0.004-0.975,0.303-1.148,0.818c-0.271,0.781,0.153,1.203,0.649,1.602
		c0.518,0.418,0.648,0.541,0.544,0.852c-0.104,0.303-0.36,0.348-0.503,0.346H223.1c-0.065-0.004-0.123-0.012-0.174-0.027
		c-0.34-0.1-0.536-0.377-0.548-0.762l-0.791,0.234c0.12,0.684,0.42,1,1.144,1.217c0.115,0.031,0.27,0.055,0.405,0.057h0.046
		c0.146,0,0.258-0.016,0.354-0.041c0.656-0.174,0.839-0.707,0.897-0.883c0.131-0.371,0.057-0.674,0.029-0.756
		C224.396,102.46,224.209,102.214,223.966,102.032z"/>
	<path d="M249.811,104.278c-1.435-2.254-6.726-4.229-14.154-5.285c-0.247-0.031-0.247-0.031-0.247-0.031l-0.871,3.762l-0.087-0.041
		c-0.831-0.404-1.734-0.85-2.762-1.369c-6.694-3.367-11.883-5.145-15.006-5.145c-0.887,0-1.602,0.146-2.125,0.434
		c-0.639,0.352-1.014,0.924-1.086,1.654c-0.164,1.652-0.498,4.553-0.697,6.283l-0.057,0.494c-0.023,0.193-0.04,0.342-0.055,0.457
		c-0.021,0.121-0.034,0.238-0.039,0.352v0.006l0,0c-0.064,1.682,1.672,2.477,3.321,3.154c-0.892,0.342-1.904,0.654-3.021,0.936
		c-1.766-0.83-3.506-1.676-5.218-2.531c0.466-0.354,1.005-0.672,1.519-0.975c0.881-0.521,1.709-1.016,2.105-1.617
		c0.783-1.197,0.742-2.363-0.114-3.121c-0.164-0.143-0.357-0.264-0.569-0.361l0.004-0.01l-0.018-0.01
		c-0.985-0.52-3.283-1.732-5.49-1.754c2.574-1.699,5.033-3.447,7.357-5.25c1.274,0.566,2.598,0.859,3.941,0.859
		c4.969-0.004,9.626-4.092,11.133-7.904c-0.725,0.631-2.213,0.727-3.93,0.836l-0.027,0.004c-1.264,0.084-2.696,0.18-3.961,0.518
		c-0.27,0.07-0.535,0.164-0.798,0.268c0.721-0.682,1.424-1.371,2.104-2.07c0.908,0.24,1.814,0.365,2.697,0.365
		c5.679,0,9.618-4.953,10.314-8.57c-0.545,0.627-1.889,0.863-3.439,1.137c-1.176,0.207-2.508,0.443-3.658,0.891
		c-0.338,0.131-0.662,0.291-0.975,0.473c0.662-0.873,1.293-1.756,1.892-2.654c0.513,0.074,1.028,0.113,1.536,0.113h0.001
		c1.552,0,3.035-0.346,4.409-1.023c0.012-0.006,0.022-0.012,0.033-0.018c0.014-0.006,0.025-0.012,0.04-0.018l0.046-0.023
		c0.03-0.018,0.063-0.033,0.094-0.049c0.063-0.033,0.123-0.068,0.185-0.1c0.005-0.004,0.01-0.006,0.016-0.008
		c0.005-0.002,0.009-0.006,0.015-0.008c2.176-1.211,4.01-3.279,5.029-5.68c0.354-0.844,0.593-1.709,0.694-2.502
		c-0.497,0.67-1.806,1.023-3.313,1.43c-1.147,0.311-2.448,0.66-3.56,1.211c-0.898,0.443-1.68,1.08-2.386,1.83
		c0.546-1.072,1.046-2.162,1.499-3.27c0.213,0.021,0.43,0.033,0.647,0.033c2.44,0,4.795-1.326,6.298-3.548
		c0.721-1.068,1.154-2.117,1.572-3.136c0.49-1.19,0.951-2.316,1.822-3.232c-0.982,0.009-3.43,0.221-5.893,1.892
		c-1.02,0.691-1.899,1.539-2.642,2.532c0.262-1.023,0.486-2.063,0.669-3.117c2.743-0.184,5.191-2.092,6.295-4.942
		c0.46-1.19,0.641-2.293,0.816-3.36l0.004-0.011c0.203-1.237,0.397-2.407,1.021-3.448c-0.943,0.208-3.253,0.91-5.263,3.028
		c-1.016,1.071-1.789,2.327-2.316,3.755c0.064-1.233,0.079-2.488,0.037-3.762c2.255-0.953,3.902-2.571,4.777-4.702
		c1.16-2.835,0.701-5.809-0.057-7.531c-0.057,0.642-0.795,1.313-1.644,2.084l-0.006,0.005c-0.694,0.63-1.481,1.346-2.074,2.198
		c-0.811,1.169-1.13,2.69-1.253,4.332c-0.15-1.374-0.361-2.77-0.635-4.19c1.926-1.466,3.104-3.42,3.407-5.672
		c0.398-2.979-0.772-5.69-1.917-7.141c0.104,0.628-0.434,1.448-1.049,2.394c-0.506,0.773-1.078,1.65-1.428,2.603
		c-0.268,0.729-0.361,1.525-0.344,2.361c-0.277-0.942-0.579-1.894-0.91-2.855c1.729-1.618,2.67-3.639,2.719-5.863
		c0.065-3.011-1.444-5.599-2.779-6.932c0.177,0.608-0.252,1.469-0.75,2.46c-0.402,0.808-0.863,1.725-1.094,2.704
		c-0.197,0.836-0.17,1.733-0.004,2.663c-0.383-0.901-0.787-1.811-1.216-2.73c1.37-1.586,2.017-3.475,1.868-5.479
		c-0.213-2.822-1.86-5.134-3.233-6.287c0.229,0.563-0.044,1.43-0.356,2.425l-0.004,0.014c-0.236,0.752-0.506,1.604-0.606,2.472
		c-0.105,0.899,0.034,1.839,0.325,2.811c-0.168-0.32-0.338-0.64-0.512-0.961c-0.271-2.94-1.414-5.06-3.48-6.459
		c-1.016-0.687-2.045-1.05-2.952-1.372c-1.068-0.378-1.919-0.68-2.308-1.348c-0.336,2.369,0.762,5.601,3.479,6.979
		c0.836,0.422,1.604,0.762,2.225,1.034c1.141,0.501,2.033,0.899,2.646,1.458c0.626,1.15,1.209,2.288,1.762,3.415
		c-0.103-0.107-0.204-0.214-0.313-0.314c-0.086-0.079-0.171-0.162-0.26-0.234c-0.822-0.67-1.873-1.239-2.803-1.742l-0.008-0.004
		c-1.23-0.667-2.297-1.246-2.557-1.88c-0.382,1.745,0.032,4.508,1.827,6.815c1.143,1.467,3.235,3.214,6.751,3.356
		c0.626,1.61,1.171,3.195,1.646,4.756c-0.636-0.792-1.481-1.54-2.233-2.201l-0.012-0.009c-1.033-0.91-1.932-1.699-2.031-2.36
		c-0.745,1.503-1.008,4.118,0.07,6.636c0.741,1.729,2.37,3.994,5.898,5.091c0.285,1.702,0.478,3.374,0.583,5.015
		c-0.017-0.032-0.03-0.064-0.047-0.095c-0.505-0.96-1.257-1.896-1.921-2.721c-0.865-1.076-1.614-2.009-1.586-2.683
		c-1.086,1.438-1.877,4.123-1.225,6.94c0.416,1.792,1.564,4.227,4.645,5.94c-0.16,1.559-0.404,3.085-0.726,4.584
		c-0.213-0.813-0.524-1.628-0.811-2.37l-0.003-0.009c-0.5-1.296-0.935-2.422-0.663-3.071c-1.713,1.151-3.524,3.669-3.761,6.751
		c-0.137,1.774,0.23,4.337,2.626,6.771c-0.841,1.928-1.822,3.801-2.933,5.615c0.086-0.301,0.154-0.607,0.199-0.914
		c0.178-1.229,0.115-2.578,0.063-3.771c-0.068-1.551-0.128-2.898,0.341-3.529c-2,0.791-4.535,3.035-5.751,6.31
		c-0.725,1.953-1.199,4.959,0.471,8.371c-1.291,1.533-2.676,3.021-4.15,4.463c0.371-0.58,0.678-1.184,0.891-1.818
		c0.424-1.256,0.605-2.688,0.768-3.953l0.002-0.008c0.219-1.699,0.41-3.172,1.08-3.855c-1.74,0.566-3.587,1.762-5.082,3.287
		c-0.008,0.008-0.012,0.014-0.02,0.02l-0.035,0.039c-0.057,0.059-0.117,0.121-0.174,0.184c-0.012,0.01-0.021,0.02-0.029,0.029
		l-0.014,0.016c-0.066,0.072-0.133,0.145-0.198,0.217c-0.004,0.006-0.008,0.01-0.013,0.016c-0.004,0.006-0.01,0.014-0.014,0.018
		c-0.823,0.932-1.498,1.949-2.008,3.023c-1.164,2.459-1.326,5.041-0.48,7.506c-3.183,2.564-6.656,5.006-10.366,7.346v-2.406
		c0-0.016-0.001-0.027-0.002-0.041l0.043,0.01c0.319-0.963,1.536-1.432,2.818-1.93c0.892-0.342,1.813-0.695,2.517-1.258
		c0.835-0.668,1.299-1.4,1.374-2.184c0.099-0.99-0.474-1.67-0.497-1.695c-0.09-0.094-0.184-0.176-0.279-0.254l0.004-0.004
		c-0.998-0.889-4.98-2.15-6.447-2.15c-0.055,0-0.104,0.002-0.154,0.006c-0.943,0.063-1.714,0.299-2.393,0.504
		c-0.636,0.197-1.191,0.369-1.809,0.389c-0.618-0.02-1.285-0.191-1.922-0.389c-0.679-0.205-1.449-0.441-2.396-0.504
		c-0.045-0.002-0.092-0.006-0.142-0.006c-1.472,0-5.46,1.262-6.454,2.15l0.006,0.004c-0.104,0.078-0.201,0.166-0.297,0.268
		c-0.021,0.027-0.58,0.701-0.484,1.682c0.077,0.783,0.541,1.516,1.376,2.184c0.708,0.566,1.631,0.924,2.532,1.27
		c1.215,0.471,2.362,0.912,2.688,1.795l0.028-0.008c-0.004,0.053-0.01,0.105-0.01,0.162v2.396
		c-3.704-2.336-7.173-4.773-10.354-7.336c0.847-2.465,0.684-5.047-0.48-7.506c-0.509-1.074-1.184-2.092-2.006-3.023
		c-0.004-0.004-0.012-0.012-0.016-0.018s-0.007-0.01-0.013-0.016c-0.065-0.072-0.132-0.145-0.198-0.217l-0.013-0.016
		c-0.011-0.01-0.019-0.02-0.028-0.029c-0.057-0.063-0.117-0.125-0.176-0.184l-0.035-0.039c-0.006-0.006-0.012-0.012-0.018-0.02
		c-1.496-1.525-3.343-2.721-5.084-3.287c0.672,0.684,0.861,2.156,1.082,3.855v0.008c0.162,1.266,0.345,2.697,0.768,3.953
		c0.213,0.635,0.52,1.238,0.892,1.818c-1.475-1.441-2.86-2.93-4.149-4.463c1.668-3.412,1.193-6.418,0.469-8.371
		c-1.215-3.275-3.75-5.52-5.751-6.31c0.47,0.63,0.409,1.978,0.343,3.529c-0.055,1.193-0.117,2.543,0.063,3.771
		c0.045,0.307,0.113,0.613,0.197,0.914c-1.109-1.814-2.09-3.688-2.933-5.615c2.396-2.434,2.764-4.997,2.628-6.771
		c-0.237-3.082-2.05-5.6-3.762-6.751c0.271,0.649-0.164,1.775-0.664,3.071l-0.002,0.009c-0.285,0.742-0.598,1.557-0.81,2.37
		c-0.323-1.499-0.567-3.025-0.728-4.584c3.08-1.713,4.229-4.148,4.644-5.94c0.653-2.817-0.138-5.502-1.224-6.94
		c0.03,0.674-0.721,1.607-1.586,2.683c-0.664,0.825-1.417,1.761-1.921,2.721c-0.017,0.031-0.028,0.063-0.045,0.095
		c0.104-1.641,0.298-3.313,0.581-5.015c3.53-1.098,5.157-3.363,5.898-5.091c1.08-2.519,0.815-5.133,0.071-6.636
		c-0.101,0.661-0.999,1.45-2.032,2.36l-0.012,0.009c-0.752,0.662-1.597,1.409-2.233,2.201c0.475-1.561,1.02-3.146,1.646-4.756
		c3.518-0.142,5.609-1.889,6.752-3.356c1.795-2.307,2.21-5.07,1.827-6.815c-0.261,0.635-1.327,1.213-2.556,1.88l-0.01,0.004
		c-0.928,0.503-1.979,1.071-2.803,1.742c-0.089,0.073-0.172,0.156-0.259,0.234c-0.109,0.1-0.21,0.207-0.313,0.314
		c0.553-1.127,1.138-2.265,1.764-3.415c0.613-0.559,1.504-0.957,2.645-1.458c0.62-0.272,1.391-0.612,2.225-1.034
		c2.717-1.377,3.814-4.61,3.479-6.979c-0.389,0.668-1.237,0.969-2.307,1.348c-0.908,0.321-1.938,0.685-2.953,1.372
		c-2.064,1.399-3.207,3.52-3.48,6.459c-0.173,0.322-0.342,0.642-0.51,0.961c0.289-0.971,0.429-1.912,0.324-2.81
		c-0.102-0.869-0.371-1.72-0.606-2.472l-0.004-0.014c-0.313-0.995-0.585-1.861-0.355-2.425c-1.375,1.153-3.022,3.465-3.233,6.287
		c-0.149,2.003,0.496,3.892,1.866,5.479c-0.428,0.918-0.833,1.829-1.214,2.729c0.164-0.93,0.192-1.826-0.006-2.662
		c-0.23-0.979-0.689-1.896-1.095-2.704c-0.496-0.992-0.926-1.853-0.747-2.46c-1.337,1.333-2.846,3.921-2.78,6.932
		c0.049,2.224,0.989,4.245,2.718,5.862c-0.33,0.961-0.633,1.913-0.91,2.855c0.019-0.836-0.075-1.632-0.344-2.361
		c-0.349-0.953-0.922-1.83-1.427-2.603c-0.616-0.945-1.151-1.766-1.05-2.394c-1.145,1.45-2.315,4.161-1.916,7.141
		c0.303,2.252,1.48,4.206,3.407,5.672c-0.273,1.42-0.485,2.817-0.634,4.19c-0.125-1.641-0.443-3.163-1.254-4.332
		c-0.592-0.852-1.381-1.567-2.075-2.198l-0.005-0.005c-0.849-0.771-1.588-1.442-1.645-2.084c-0.758,1.722-1.217,4.695-0.055,7.531
		c0.873,2.131,2.52,3.75,4.775,4.702c-0.041,1.274-0.027,2.528,0.038,3.762c-0.528-1.428-1.301-2.684-2.317-3.755
		c-2.008-2.118-4.318-2.819-5.264-3.028c0.625,1.041,0.818,2.211,1.022,3.448l0.003,0.011c0.176,1.067,0.357,2.17,0.816,3.36
		c1.104,2.851,3.552,4.758,6.295,4.942c0.184,1.055,0.408,2.093,0.669,3.117c-0.742-0.993-1.622-1.841-2.642-2.532
		c-2.463-1.671-4.908-1.883-5.893-1.892c0.871,0.916,1.333,2.042,1.823,3.232c0.419,1.019,0.851,2.067,1.573,3.136
		c1.5,2.222,3.855,3.548,6.296,3.548c0.22,0,0.435-0.012,0.647-0.033c0.453,1.107,0.954,2.197,1.499,3.27
		c-0.705-0.75-1.487-1.387-2.385-1.83c-1.11-0.551-2.411-0.9-3.56-1.211c-1.508-0.406-2.816-0.76-3.312-1.43
		c0.101,0.793,0.339,1.658,0.692,2.502c1.02,2.4,2.854,4.469,5.029,5.68c0.006,0.002,0.011,0.006,0.016,0.008
		s0.011,0.004,0.016,0.008c0.061,0.031,0.123,0.066,0.184,0.1c0.032,0.016,0.063,0.031,0.094,0.049l0.047,0.023
		c0.014,0.006,0.027,0.012,0.04,0.018c0.01,0.006,0.021,0.012,0.032,0.018c1.374,0.678,2.858,1.023,4.409,1.023h0.002
		c0.509,0,1.022-0.039,1.536-0.113c0.598,0.898,1.229,1.781,1.892,2.654c-0.313-0.182-0.638-0.342-0.975-0.473
		c-1.15-0.447-2.481-0.684-3.659-0.891c-1.55-0.273-2.894-0.51-3.438-1.137c0.695,3.617,4.633,8.57,10.314,8.57
		c0.882,0,1.787-0.127,2.697-0.365c0.68,0.699,1.382,1.389,2.103,2.07c-0.263-0.104-0.526-0.197-0.796-0.268
		c-1.266-0.338-2.699-0.434-3.961-0.518l-0.028-0.004c-1.717-0.109-3.206-0.205-3.931-0.836c1.507,3.813,6.164,7.9,11.135,7.904
		c1.342,0,2.666-0.293,3.939-0.859c2.326,1.803,4.781,3.551,7.355,5.25c-2.039,0.002-4.122,1.098-5.365,1.754l-0.019,0.01
		l0.007,0.012c-0.212,0.096-0.404,0.217-0.566,0.359c-0.857,0.758-0.899,1.924-0.113,3.121c0.398,0.607,1.234,1.102,2.121,1.625
		c0.488,0.287,1.003,0.594,1.451,0.926c-1.736,0.873-3.502,1.729-5.297,2.572c-1.113-0.281-2.125-0.594-3.017-0.934
		c1.789-0.734,3.692-1.609,3.271-3.611c-0.013-0.102-0.026-0.223-0.045-0.373c-0.205-1.766-0.576-4.992-0.752-6.764
		c-0.072-0.732-0.449-1.305-1.086-1.654c-0.523-0.287-1.238-0.434-2.127-0.434c-3.119,0-8.308,1.777-15.004,5.145
		c-0.987,0.498-1.891,0.947-2.762,1.371l-0.086,0.041l-0.863-3.771l-0.305,0.039c-7.396,1.059-12.67,3.033-14.107,5.281
		c-0.402,0.635-0.508,1.285-0.311,1.938c0.006,0.021,0.016,0.043,0.023,0.064h-0.004l2.144,7.086
		c0.205,0.674,0.661,1.168,1.357,1.463c0.499,0.209,1.131,0.316,1.878,0.316c3.012,0,8.031-1.771,14.516-5.125
		c3.753-1.943,7.025-3.408,9.673-4.346c0.148,2.021,0.171,4.311,0.171,6.303v0.021h0.012c-0.002,0.053-0.01,0.102-0.01,0.154
		c0,0.365,0.057,0.721,0.168,1.068c-1.174,0.508-2.354,1.014-3.542,1.514c0.853,0.152,1.732,0.617,2.667,0.73
		c0.577-0.254,1.146-0.516,1.717-0.777c0.498,0.582,1.179,1.127,2.043,1.635c1.709,1.004,4.085,1.834,7.063,2.475
		c0.316,0.779,0.779,1.625,1.351,2.59l0.434,0.727l0.164-0.83c0.164-0.83,0.511-1.465,0.932-1.965
		c2.868,0.439,5.998,0.686,8.859,0.693l0,0h0.021h0.021l0,0c2.898-0.008,6.064-0.26,8.96-0.709c0.43,0.502,0.778,1.143,0.944,1.98
		l0.153,0.777l0.011,0.053l0.434-0.727c0.577-0.977,1.047-1.83,1.363-2.619c2.941-0.643,5.289-1.475,6.974-2.473
		c0.839-0.5,1.504-1.037,1.992-1.607c0.571,0.262,1.139,0.523,1.716,0.777c0.936-0.113,1.814-0.578,2.669-0.73
		c-1.19-0.5-2.37-1.006-3.542-1.514c0.111-0.348,0.168-0.703,0.168-1.068c0-0.098-0.008-0.191-0.018-0.283
		c0-2.211,0.016-4.344,0.151-6.209c2.654,0.936,5.94,2.406,9.712,4.359c6.486,3.354,11.504,5.125,14.515,5.125
		c0.746,0,1.378-0.107,1.879-0.316c0.7-0.297,1.156-0.791,1.359-1.463l2.138-7.064l0.006-0.021H250.1
		c0.009-0.023,0.018-0.045,0.023-0.064C250.319,105.563,250.215,104.911,249.811,104.278z M235.619,49.423
		c0.135-1.29,0.426-2.429,0.861-3.386c0.478-1.052,1.403-1.878,2.148-2.542l0.01-0.01c0.483-0.431,0.9-0.804,1.105-1.146
		l0.029-0.059l0.019,0.065c0.12,0.522,0.475,2.396-0.074,4.541c-0.267,1.038-0.706,1.982-1.306,2.808
		c-0.679,0.937-1.572,1.729-2.652,2.362c1.02-1.407,2.111-4.183,2.369-5.137c-0.547,0.908-1.781,3.348-2.588,4.383
		C235.531,50.791,235.545,50.143,235.619,49.423z M230.77,30.058c0.055-1.126,0.602-2.192,1.04-3.049l0.002-0.004
		c0.285-0.558,0.53-1.039,0.592-1.421l0.01-0.061l0.036,0.051c0.3,0.432,1.301,2.009,1.581,4.157c0.134,1.036,0.076,2.045-0.171,3
		c-0.287,1.117-0.84,2.173-1.637,3.14c0.484-1.592,0.533-4.908,0.349-6.041c-0.063,1.013-0.322,3.688-0.784,5.257
		c-0.186-0.449-0.395-1.011-0.575-1.655C230.867,32.212,230.717,31.077,230.77,30.058z M223.952,29.606
		c-1.019-1.552-1.433-3.311-1.479-4.347V25.2l0.043,0.041c0.451,0.399,1.137,0.743,1.863,1.106l0.007,0.003
		c0.981,0.491,2.093,1.048,2.838,1.864c0.688,0.754,1.286,1.66,1.778,2.692c0.393,0.815,0.625,1.52,0.753,1.975
		c-1.37-0.946-4.019-3.392-4.375-3.817c0.626,1.076,2.708,3.051,3.751,3.997c-1.1-0.224-2.093-0.624-2.956-1.198
		C225.301,31.282,224.552,30.522,223.952,29.606z M230.43,80.491c0.979-0.168,1.9-0.326,2.492-0.625l0.063-0.025l-0.028,0.063
		c-0.31,0.664-1.195,2.371-2.788,3.846c-0.844,0.781-1.772,1.395-2.762,1.826c-1.18,0.512-2.461,0.773-3.807,0.773
		c-0.278,0-0.562-0.012-0.846-0.033c2.482-0.957,5.518-3.076,5.93-3.428c-0.777,0.412-4.619,2.418-6.632,3.1
		c0.3-0.459,0.825-1.199,1.565-2c0.912-0.984,1.895-1.783,2.922-2.379C227.653,80.968,229.129,80.714,230.43,80.491z
		 M232.811,72.769c1.011-0.709,2.279-1.029,3.501-1.342l0.021-0.004c0.984-0.252,1.912-0.488,2.57-0.904l0.071-0.047l-0.034,0.078
		c-0.518,1.174-1.437,2.879-2.883,4.34c-1.899,1.916-4.164,2.887-6.729,2.887c-0.093,0-0.19-0.002-0.29-0.004
		c2.152-1.02,5.274-3.197,6.025-3.855c-1.648,0.877-4.49,2.6-6.328,3.348c0.264-0.451,0.692-1.121,1.308-1.879
		C230.896,74.337,231.827,73.458,232.811,72.769z M234.719,65.083c0.758-0.881,1.625-1.631,2.583-2.229
		c1.091-0.682,2.294-1.166,3.575-1.439l0.074-0.017l-0.043,0.064c-0.153,0.251-0.324,0.673-0.543,1.208v0.005
		c-0.483,1.19-1.211,2.991-2.449,4.468c-0.684,0.812-1.453,1.447-2.292,1.892c-0.911,0.482-1.931,0.75-3.032,0.805
		c1.72-1.152,4.166-3.675,5.365-5.401c-1.097,1.128-4.168,3.93-5.4,4.836c0.264-0.701,0.511-1.408,0.736-2.123
		C233.689,66.422,234.166,65.726,234.719,65.083z M235.525,57.758v-0.023l0.01,0.003c-0.002,0.008-0.006,0.017-0.01,0.025
		l0.006,0.002c0.271-0.782,0.645-1.589,1.139-2.373l-0.004-0.004c-0.002,0.004-0.004,0.007-0.006,0.01l0.004-0.004l-0.047-0.03
		h0.055c0.463-0.735,1.007-1.411,1.621-2.009c0.905-0.885,1.961-1.6,3.137-2.122l0.063-0.028l-0.021,0.066
		c-0.093,0.272-0.163,0.713-0.251,1.27l-0.004,0.019c-0.201,1.251-0.506,3.142-1.379,4.831c-0.48,0.932-1.09,1.714-1.814,2.325
		c-0.839,0.713-1.856,1.213-3.023,1.49c1.313-1.251,2.99-3.917,3.4-5.007c-0.839,0.953-2.271,3.006-3.426,4.046
		c0.042-0.455,0.117-0.933,0.236-1.423C235.295,58.473,235.402,58.115,235.525,57.758z M233.826,38.245
		c0.195-1.124,0.874-2.139,1.419-2.955l0.002-0.006c0.353-0.529,0.657-0.987,0.765-1.363l0.018-0.061l0.029,0.056
		c0.245,0.466,1.045,2.155,1.053,4.333c0.006,1.047-0.178,2.054-0.543,2.992c-0.4,1.024-1.025,1.972-1.857,2.821
		c0.508-1.726,0.964-5.088,0.949-5.733c-0.21,1.112-0.893,3.772-1.4,5.236c-0.141-0.495-0.301-1.146-0.414-1.89
		C233.654,40.417,233.648,39.263,233.826,38.245z M227.761,20.094v-0.006c0.157-0.5,0.302-0.972,0.319-1.327v-0.07l0.044,0.054
		c0.315,0.374,1.384,1.745,1.859,3.709c0.228,0.942,0.282,1.875,0.155,2.776c-0.146,1.047-0.533,2.057-1.154,3.005
		c0.192-1.831-0.336-5.583-0.336-5.583s-0.086,3.4-0.209,4.738c-0.192-0.407-0.377-0.854-0.533-1.311
		c-0.368-1.052-0.593-2.112-0.654-3.066C227.188,21.966,227.506,20.928,227.761,20.094z M224.326,22.692
		c-0.766-0.284-1.816-0.672-3.041-1.348c-0.992-0.545-1.746-1.306-2.244-2.262c-0.385-0.737-0.623-1.607-0.71-2.586l-0.004-0.061
		l0.05,0.031c0.146,0.085,0.416,0.177,0.763,0.296l0.004,0.002c0.724,0.248,1.813,0.625,3.186,1.37
		c0.491,0.267,0.958,0.632,1.392,1.084c0.383,0.405,0.73,0.872,1.031,1.384c0.484,0.829,0.809,1.738,0.875,2.435
		c-0.98-1.476-3.77-3.364-3.77-3.364s2.031,1.899,3.035,3.233c-0.167-0.066-0.354-0.136-0.562-0.213L224.326,22.692z
		 M230.044,42.772c-0.709-0.768-1.254-1.667-1.618-2.673c-0.79-2.184-0.467-4.073-0.396-4.43l0.013-0.06l0.033,0.05
		c0.337,0.476,0.915,0.953,1.525,1.46l0.01,0.007c0.844,0.698,1.801,1.488,2.334,2.449c0.496,0.889,0.865,1.9,1.098,3.006
		c0.152,0.731,0.213,1.359,0.236,1.817c-0.974-1.08-2.815-3.674-3.268-4.436c0.492,1.521,1.975,3.751,2.963,4.852
		C231.809,44.296,230.822,43.612,230.044,42.772z M231.365,54.588c-0.578-0.913-0.959-1.933-1.131-3.032
		c-0.137-0.883-0.14-1.801-0.006-2.727c0.1-0.682,0.278-1.367,0.49-1.88l0.022-0.057l0.024,0.055c0.245,0.53,0.733,1.102,1.25,1.708
		l0.012,0.012c0.722,0.844,1.54,1.801,1.903,2.879c0.29,0.861,0.46,1.807,0.519,2.81c-0.012,0.86-0.047,1.713-0.105,2.556
		c-0.775-1.153-2.064-3.932-2.479-5.125c0.147,1.24,1.175,3.771,1.882,5.26C232.756,56.344,231.955,55.52,231.365,54.588z
		 M229.226,63.256c0.175-0.903,0.501-1.799,0.967-2.662c0.339-0.631,0.766-1.25,1.169-1.695l0.038-0.042l0.007,0.057
		c0.061,0.593,0.358,1.294,0.674,2.038c0.438,1.032,0.933,2.202,0.919,3.357c-0.003,0.233-0.017,0.471-0.038,0.71
		c-0.433,1.58-0.949,3.127-1.557,4.638c-0.438-1.927-0.561-6.126-0.48-7.009c-0.417,1.829-0.297,5.188-0.028,7.027
		c-0.788-0.986-1.323-2.039-1.597-3.135C229.033,65.482,229.009,64.376,229.226,63.256z M223.034,77.546
		c0.091-1.24,0.43-2.473,1.009-3.662c0.982-2.016,2.496-3.561,3.495-4.27l0.051-0.035l-0.01,0.063
		c-0.103,0.529-0.067,1.307-0.029,2.207c0.063,1.395,0.134,2.977-0.263,4.283c-0.351,1.168-0.916,2.357-1.678,3.535
		c-0.496,0.768-0.977,1.373-1.348,1.805c0-1.82,0.882-5.361,1.156-6.537c-0.474,0.943-1.492,4.49-1.718,6.871
		C223.156,80.392,222.931,78.958,223.034,77.546z M169.763,28.214c0.745-0.816,1.857-1.373,2.838-1.864l0.007-0.003
		c0.727-0.363,1.41-0.707,1.863-1.106l0.045-0.041v0.06c-0.049,1.036-0.462,2.794-1.481,4.347c-0.599,0.916-1.347,1.675-2.222,2.257
		c-0.863,0.575-1.857,0.975-2.957,1.198c1.045-0.946,3.127-2.921,3.752-3.997c-0.356,0.425-3.006,2.871-4.376,3.817
		c0.13-0.455,0.36-1.159,0.753-1.975C168.477,29.875,169.076,28.968,169.763,28.214z M163.127,32.729
		c-0.246-0.955-0.305-1.964-0.169-3c0.278-2.148,1.279-3.725,1.579-4.157l0.036-0.051l0.011,0.061
		c0.061,0.382,0.307,0.863,0.591,1.421l0.003,0.004c0.439,0.857,0.984,1.923,1.041,3.049c0.051,1.02-0.1,2.155-0.442,3.373
		c-0.183,0.645-0.392,1.207-0.577,1.656c-0.462-1.57-0.721-4.245-0.783-5.258c-0.184,1.133-0.137,4.448,0.348,6.041
		C163.967,34.902,163.414,33.846,163.127,32.729z M158.574,49.694c-0.6-0.826-1.038-1.771-1.305-2.808
		c-0.549-2.145-0.195-4.018-0.074-4.541l0.018-0.065l0.029,0.059c0.205,0.342,0.622,0.715,1.105,1.146l0.012,0.01
		c0.744,0.664,1.67,1.491,2.146,2.542c0.437,0.957,0.727,2.096,0.861,3.386c0.075,0.72,0.09,1.368,0.08,1.879
		c-0.809-1.036-2.043-3.475-2.588-4.383c0.258,0.954,1.348,3.73,2.367,5.137C160.148,51.424,159.253,50.631,158.574,49.694z
		 M169.408,69.642l-0.011-0.063l0.052,0.035c0.998,0.709,2.512,2.254,3.494,4.27c0.579,1.189,0.918,2.422,1.011,3.662
		c0.103,1.412-0.124,2.846-0.667,4.26c-0.225-2.381-1.244-5.928-1.719-6.871c0.274,1.176,1.156,4.717,1.158,6.537
		c-0.373-0.432-0.852-1.037-1.348-1.805c-0.764-1.178-1.328-2.367-1.68-3.535c-0.396-1.307-0.326-2.889-0.262-4.283
		C169.475,70.948,169.511,70.171,169.408,69.642z M163.987,64.309c-0.013-1.155,0.482-2.325,0.92-3.357
		c0.315-0.743,0.612-1.444,0.673-2.038l0.008-0.057l0.037,0.042c0.405,0.445,0.831,1.063,1.17,1.695
		c0.465,0.863,0.791,1.759,0.967,2.662c0.217,1.12,0.191,2.226-0.072,3.283c-0.275,1.097-0.811,2.149-1.598,3.135
		c0.268-1.839,0.389-5.198-0.027-7.027c0.08,0.883-0.045,5.082-0.482,7.009c-0.605-1.511-1.124-3.058-1.556-4.638
		C164.004,64.78,163.99,64.542,163.987,64.309z M163.057,51.546c0.361-1.078,1.181-2.035,1.903-2.879l0.011-0.012
		c0.517-0.606,1.006-1.178,1.25-1.708l0.025-0.055l0.021,0.057c0.213,0.513,0.393,1.198,0.492,1.88
		c0.132,0.926,0.13,1.843-0.008,2.727c-0.172,1.099-0.553,2.12-1.131,3.032c-0.59,0.932-1.389,1.756-2.381,2.459
		c0.709-1.489,1.734-4.02,1.882-5.26c-0.415,1.193-1.704,3.972-2.478,5.125c-0.061-0.843-0.096-1.695-0.107-2.556
		C162.598,53.353,162.766,52.407,163.057,51.546z M167.375,37.127l0.011-0.007c0.61-0.507,1.188-0.984,1.524-1.46l0.033-0.05
		l0.013,0.06c0.072,0.357,0.396,2.246-0.396,4.43c-0.363,1.006-0.908,1.905-1.617,2.673c-0.777,0.84-1.765,1.524-2.932,2.042
		c0.989-1.101,2.473-3.331,2.963-4.852c-0.452,0.762-2.293,3.356-3.266,4.436c0.023-0.458,0.082-1.085,0.236-1.817
		c0.23-1.106,0.602-2.117,1.096-3.006C165.576,38.615,166.531,37.825,167.375,37.127z M173.268,19.219
		c0.432-0.453,0.899-0.818,1.39-1.084c1.372-0.745,2.464-1.122,3.186-1.37l0.005-0.002c0.344-0.119,0.617-0.211,0.762-0.296
		l0.052-0.031l-0.005,0.061c-0.086,0.979-0.326,1.849-0.711,2.586c-0.496,0.956-1.252,1.717-2.242,2.262
		c-1.227,0.675-2.275,1.064-3.041,1.348l-0.006,0.002c-0.209,0.077-0.396,0.147-0.563,0.213c1.004-1.334,3.036-3.233,3.036-3.233
		s-2.788,1.888-3.771,3.364c0.068-0.696,0.393-1.606,0.875-2.435C172.535,20.09,172.883,19.624,173.268,19.219z M167.004,22.454
		c0.475-1.964,1.543-3.335,1.859-3.709l0.043-0.054v0.07c0.02,0.355,0.163,0.828,0.319,1.327l0.001,0.006
		c0.256,0.834,0.572,1.872,0.507,2.92c-0.061,0.955-0.284,2.014-0.652,3.066c-0.157,0.456-0.341,0.903-0.532,1.311
		c-0.125-1.337-0.211-4.738-0.211-4.738s-0.528,3.752-0.338,5.582c-0.618-0.948-1.006-1.958-1.151-3.005
		C166.723,24.33,166.775,23.396,167.004,22.454z M160.418,41.24c-0.365-0.938-0.548-1.945-0.543-2.992
		c0.008-2.178,0.808-3.867,1.053-4.333l0.029-0.056l0.018,0.061c0.107,0.376,0.412,0.834,0.764,1.363l0.005,0.006
		c0.544,0.816,1.222,1.831,1.417,2.955c0.179,1.018,0.172,2.172-0.02,3.429c-0.113,0.745-0.271,1.396-0.414,1.89
		c-0.508-1.464-1.189-4.124-1.399-5.236c-0.015,0.645,0.44,4.007,0.948,5.733C161.443,43.212,160.818,42.265,160.418,41.24z
		 M157.148,57.393c-0.873-1.689-1.176-3.579-1.379-4.831l-0.002-0.019c-0.09-0.557-0.16-0.998-0.252-1.27l-0.021-0.066l0.064,0.028
		c1.174,0.522,2.23,1.237,3.137,2.122c0.613,0.598,1.156,1.273,1.619,2.009h0.055l-0.045,0.03l0.002,0.004
		c-0.002-0.003-0.004-0.006-0.006-0.01l-0.004,0.004c0.494,0.784,0.867,1.591,1.139,2.373l0.006-0.002
		c-0.002-0.008-0.006-0.017-0.01-0.025l0.012-0.003v0.023c0.121,0.356,0.229,0.715,0.313,1.066c0.119,0.49,0.195,0.968,0.237,1.423
		c-1.155-1.04-2.588-3.094-3.427-4.046c0.412,1.09,2.088,3.756,3.4,5.007c-1.166-0.277-2.185-0.777-3.023-1.49
		C158.239,59.107,157.63,58.325,157.148,57.393z M161.362,69.036c-0.837-0.445-1.607-1.081-2.292-1.892
		c-1.238-1.477-1.965-3.277-2.447-4.468l-0.002-0.005c-0.219-0.535-0.389-0.957-0.543-1.208l-0.043-0.064l0.075,0.017
		c1.28,0.273,2.483,0.758,3.575,1.439c0.957,0.598,1.824,1.348,2.582,2.229c0.553,0.643,1.029,1.339,1.426,2.07
		c0.227,0.715,0.473,1.421,0.736,2.123c-1.232-0.907-4.304-3.708-5.398-4.836c1.197,1.726,3.645,4.249,5.364,5.401
		C163.295,69.786,162.273,69.519,161.362,69.036z M160.931,74.89c-1.446-1.461-2.366-3.166-2.884-4.34l-0.034-0.078l0.071,0.047
		c0.658,0.416,1.586,0.652,2.57,0.904l0.021,0.004c1.224,0.313,2.49,0.633,3.501,1.342c0.983,0.689,1.916,1.568,2.769,2.617
		c0.616,0.758,1.044,1.428,1.309,1.879c-1.838-0.748-4.681-2.471-6.329-3.348c0.752,0.658,3.873,2.836,6.025,3.855
		c-0.1,0.002-0.197,0.004-0.289,0.004C165.094,77.776,162.829,76.806,160.931,74.89z M169.582,85.575
		c-0.991-0.432-1.92-1.045-2.764-1.826c-1.592-1.475-2.479-3.182-2.787-3.846l-0.029-0.063l0.063,0.025
		c0.594,0.299,1.516,0.457,2.492,0.625c1.301,0.223,2.776,0.477,3.893,1.117c1.025,0.596,2.008,1.395,2.92,2.379
		c0.741,0.801,1.266,1.541,1.566,2c-2.013-0.682-5.854-2.688-6.632-3.1c0.411,0.352,3.446,2.471,5.929,3.428
		c-0.284,0.021-0.566,0.033-0.846,0.033C172.042,86.349,170.761,86.087,169.582,85.575z M213.273,105.864L213.273,105.864
		l0.003-0.018c0.009-0.068,0.021-0.176,0.036-0.314c0.002-0.002,0.002-0.006,0.002-0.01c0.082-0.385,0.292-0.648,0.663-0.824
		c0.329-0.154,0.768-0.232,1.304-0.232c1.113,0,2.665,0.338,4.58,0.973c-0.114,1.494-0.15,3.152-0.162,4.971
		c-0.762-0.877-2.061-1.412-3.264-1.904C214.459,107.698,213.22,107.091,213.273,105.864z M206.486,109.087
		c0.029-0.25,0.125-0.484,0.264-0.707c1.281,0.693,2.58,1.383,3.893,2.063c-1.07,0.205-2.209,0.387-3.406,0.541
		C206.679,110.278,206.424,109.642,206.486,109.087z M210.791,102.185c0.599,0.529,0.599,1.357-0.001,2.273
		c-0.313,0.479-1.085,0.936-1.903,1.42l-0.01,0.004c-0.613,0.365-1.268,0.754-1.81,1.205c-1.316-0.668-2.613-1.342-3.892-2.025
		c1.676-0.766,3.279-1.58,4.644-2.746c0.454-0.387,1.026-0.598,1.611-0.598C209.957,101.718,210.451,101.888,210.791,102.185z
		 M202.014,111.446c-1.207,0.063-2.388,0.098-3.525,0.1c-1.089-0.002-2.229-0.035-3.393-0.094c1.061-1.064,1.884-2.215,1.827-3.463
		c-0.032-0.707-0.343-1.371-0.925-2.016c0.881,0.221,1.638,0.318,2.463,0.326v0.002h0.021c0.002,0,0.003,0,0.004,0
		c0.002,0,0.002,0,0.003,0h0.021V106.3c0.862-0.01,1.682-0.129,2.674-0.396c-0.628,0.664-0.959,1.354-0.992,2.086
		C200.135,109.233,200.955,110.382,202.014,111.446z M198.485,105.655c-0.884-0.01-1.684-0.127-2.671-0.398
		c0.855-0.492,1.704-0.988,2.547-1.482c0.039,0,0.079,0,0.12,0c0.048,0,0.097,0,0.146,0c0.832,0.488,1.672,0.979,2.52,1.467
		C200.143,105.522,199.336,105.646,198.485,105.655z M198.488,95.255c-0.23,0.002-0.451,0.004-0.662,0.01
		c-0.066-1.393-0.522-2.164-1.088-2.727c0.668,0.133,1.26,0.191,1.844,0.197c0.568-0.006,1.139-0.063,1.775-0.188
		c-0.55,0.549-1.009,1.32-1.072,2.721C199.032,95.261,198.77,95.257,198.488,95.255z M198.488,95.864
		c3.924,0.008,4.341,0.633,4.341,1.221v4.977c0,0.906-1.789,1.1-4.348,1.104c-2.558-0.004-4.339-0.197-4.339-1.104v-4.977
		C194.143,96.497,194.566,95.872,198.488,95.864z M205.09,100.206c1.291,0,2.65,0.463,3.719,0.934
		c-0.517,0.104-1.004,0.336-1.408,0.682c-1.43,1.219-3.088,2.02-4.945,2.854c-0.6-0.324-1.193-0.65-1.784-0.979
		c1.591-0.141,2.766-0.537,2.766-1.635v-1.393c0.169-0.109,0.335-0.217,0.503-0.324C204.299,100.255,204.684,100.206,205.09,100.206
		z M219.232,89.478c1.344-0.578,3.01-0.65,4.48-0.715c0.992-0.043,1.848-0.084,2.445-0.264l0.069-0.027l-0.04,0.063
		c-0.408,0.621-1.551,2.207-3.317,3.563c-0.882,0.678-1.813,1.213-2.763,1.59c-1.113,0.439-2.269,0.662-3.432,0.662
		c-0.744,0-1.503-0.094-2.264-0.275c2.293-0.48,5.08-1.555,6.419-2.447c-1.25,0.5-5.021,1.887-7.151,2.041
		c0.269-0.307,0.83-0.914,1.605-1.602c0.221-0.186,0.442-0.369,0.659-0.557C216.856,90.776,217.975,90.021,219.232,89.478z
		 M214.336,86.735c0.289-1.248,0.849-2.459,1.664-3.6c1.582-2.217,3.684-3.563,4.514-4.039l0.064-0.041l-0.028,0.072
		c-0.22,0.586-0.31,1.434-0.415,2.418c-0.158,1.467-0.336,3.129-0.996,4.434c-1.302,2.564-3.504,4.469-4.38,5.16
		c0.415-2.012,2.065-5.727,2.595-6.813c-0.477,0.609-2.34,3.992-3.061,6.418C214.02,89.374,214.035,88.028,214.336,86.735z
		 M209.582,91.622c-0.061,0.613-0.447,1.209-1.148,1.77c-0.621,0.5-1.504,0.838-2.367,1.17c-1.121,0.436-2.271,0.881-2.868,1.717
		c-0.427-0.596-1.462-0.895-3.309-0.988c0.074-1.725,0.778-2.271,1.585-2.891l0.229-0.182l-0.005-0.006
		c0.685-0.201,1.46-0.469,2.382-0.818c0.535-0.203,1.059-0.453,1.52-0.676c1.026-0.492,1.805-0.844,2.474-0.844
		c0.454,0,0.834,0.168,1.169,0.523C209.309,90.485,209.647,90.962,209.582,91.622z M194.253,88.19h0.002
		c0.879,0.061,1.582,0.277,2.263,0.484c0.646,0.199,1.372,0.383,2.064,0.408v0.004c0.01,0,0.021-0.004,0.03-0.004
		c0.011,0,0.022,0.004,0.032,0.004v-0.004c0.688-0.025,1.302-0.209,1.953-0.41c0.645-0.197,1.375-0.422,2.258-0.482l0.111-0.004
		c0.902,0,2.938,0.578,4.426,1.168c-0.673,0.152-1.38,0.492-2.092,0.83c-0.465,0.227-0.948,0.455-1.436,0.641
		c-2.518,0.953-3.918,1.289-5.283,1.305c-1.367-0.016-2.822-0.352-5.336-1.305c-0.485-0.182-0.953-0.404-1.479-0.66
		c-0.684-0.324-1.383-0.66-2.056-0.811C191.239,88.759,193.349,88.19,194.253,88.19z M191.047,94.573
		c-0.85-0.33-1.73-0.672-2.369-1.182c-0.699-0.559-1.085-1.146-1.148-1.756c-0.074-0.699,0.309-1.203,0.332-1.23
		c0.334-0.355,0.721-0.527,1.18-0.527c0.671,0,1.449,0.35,2.471,0.84c0.465,0.223,0.988,0.475,1.518,0.676
		c0.916,0.348,1.695,0.613,2.384,0.814l-0.006,0.01l0.227,0.18c0.807,0.621,1.508,1.166,1.585,2.887
		c-1.869,0.082-2.934,0.365-3.399,0.938C193.242,95.419,192.131,94.989,191.047,94.573z M176.852,81.546
		c-0.104-0.984-0.194-1.832-0.414-2.418l-0.029-0.072l0.066,0.041c0.828,0.477,2.93,1.822,4.514,4.039
		c0.814,1.141,1.375,2.352,1.662,3.6c0.302,1.293,0.316,2.639,0.045,4.01c-0.722-2.426-2.585-5.809-3.063-6.418
		c0.529,1.086,2.181,4.801,2.596,6.813c-0.877-0.691-3.079-2.596-4.379-5.16C177.188,84.675,177.01,83.013,176.852,81.546z
		 M180.311,94.349c-1.162,0-2.316-0.223-3.43-0.662c-0.951-0.377-1.881-0.912-2.765-1.59c-1.767-1.355-2.909-2.941-3.317-3.563
		l-0.039-0.063l0.068,0.027c0.598,0.18,1.453,0.221,2.445,0.264c1.472,0.064,3.139,0.137,4.479,0.715
		c1.257,0.543,2.376,1.297,3.287,2.029c0.219,0.189,0.442,0.375,0.664,0.563c0.776,0.684,1.335,1.291,1.603,1.598
		c-2.131-0.154-5.901-1.541-7.151-2.041c1.339,0.893,4.127,1.967,6.42,2.447C181.814,94.255,181.056,94.349,180.311,94.349z
		 M191.85,100.208c0.447,0,0.871,0.064,1.264,0.18c0.143,0.092,0.281,0.182,0.424,0.273v1.4c0,1.102,1.18,1.498,2.776,1.639
		c-0.601,0.332-1.204,0.664-1.813,0.992l-0.01-0.004c-1.898-0.854-3.287-1.598-4.774-2.867c-0.411-0.35-0.905-0.582-1.431-0.686
		C189.352,100.653,190.621,100.208,191.85,100.208z M188.221,105.874l-0.016-0.01c-0.808-0.479-1.569-0.928-1.879-1.406
		c-0.602-0.914-0.602-1.744-0.002-2.273c0.336-0.299,0.833-0.467,1.359-0.467c0.584,0,1.155,0.211,1.609,0.598
		c1.426,1.215,2.761,1.963,4.492,2.762c-1.245,0.664-2.508,1.32-3.788,1.969C189.461,106.61,188.822,106.231,188.221,105.874z
		 M190.332,108.329c0.158,0.236,0.263,0.488,0.294,0.758c0.063,0.561-0.195,1.199-0.758,1.91c-1.242-0.158-2.419-0.342-3.523-0.555
		C187.689,109.745,189.02,109.042,190.332,108.329z M183.674,105.526c0.018,0.139,0.032,0.27,0.037,0.314l0.003,0.02h0.001
		c0.055,1.23-1.186,1.838-3.164,2.645c-1.213,0.496-2.527,1.039-3.286,1.93c-0.014-1.656-0.057-3.408-0.177-4.982
		c1.934-0.646,3.498-0.986,4.617-0.986c0.539,0,0.978,0.078,1.307,0.234c0.369,0.176,0.58,0.438,0.662,0.822V105.526z
		 M147.486,106.024c-0.142-0.469-0.064-0.924,0.237-1.398c1.265-1.982,6.479-3.92,13.29-4.936l0.066-0.012l0.772,3.334l-0.054,0.025
		c-6.025,2.891-9.875,4.238-12.118,4.238c-0.509,0-0.94-0.072-1.278-0.217C147.936,106.856,147.637,106.519,147.486,106.024z
		 M166.481,109.44c-8.078,4.178-12.185,5.055-14.208,5.055c-0.66,0-1.211-0.092-1.638-0.27c-0.517-0.219-0.841-0.561-0.987-1.051
		l-1.697-5.613c0.063,0.033,0.125,0.066,0.191,0.094c0.416,0.178,0.937,0.268,1.551,0.268c3.438,0,9.671-2.896,15.896-6.027
		c8.351-4.201,12.596-5.084,14.686-5.084c0.983,0,1.543,0.197,1.838,0.359c0.459,0.248,0.706,0.623,0.758,1.148
		c0.156,1.572,0.462,4.244,0.656,5.93c-0.076-0.049-0.153-0.094-0.238-0.135c-0.405-0.191-0.937-0.287-1.576-0.287
		C178.084,103.827,171.428,106.878,166.481,109.44z M177.273,112.149c0-1.42,1.344-2.131,2.911-2.789
		c0.861,0.363,1.853,0.701,2.956,1.006c-1.888,0.877-3.807,1.738-5.748,2.588C177.314,112.69,177.273,112.423,177.273,112.149z
		 M186.49,118.081c-4.05-0.906-6.858-2.172-8.238-3.678c2.438-1.119,4.832-2.285,7.175-3.486c1.214,0.258,2.526,0.48,3.919,0.666
		c-0.082,0.084-0.162,0.168-0.252,0.252C186.476,114.331,185.885,116.036,186.49,118.081z M188.319,120.237l-0.059,0.148
		l-0.074-0.135c-1.866-3.293-1.923-4.82,1.354-7.945c1.277-1.217,1.843-2.295,1.729-3.293c-0.04-0.363-0.172-0.693-0.366-0.996
		c1.339-0.732,2.655-1.473,3.959-2.215c0.912,0.727,1.378,1.455,1.411,2.217c0.074,1.596-1.77,3.172-3.396,4.563
		c-1.506,1.285-2.809,2.395-2.612,3.5c0.081,0.447,0.396,0.826,0.961,1.156l0.12,0.074l-0.129,0.061
		C189.765,118.036,188.816,118.976,188.319,120.237z M198.5,119.358c-2.674-0.004-5.607-0.221-8.305-0.607
		c0.742-0.609,1.573-0.922,2.104-1.121l0.814-0.303l-0.814-0.305c-0.859-0.32-1.329-0.674-1.395-1.053
		c-0.131-0.738,1.097-1.785,2.397-2.898l0.007-0.004c0.376-0.324,0.766-0.656,1.141-1c1.381,0.082,2.731,0.127,4.02,0.129v0.002
		h0.02h0.021v-0.002c1.339-0.002,2.732-0.051,4.147-0.139c0.386,0.354,0.786,0.697,1.175,1.027l0.021,0.02
		c1.278,1.098,2.487,2.135,2.358,2.863c-0.068,0.381-0.539,0.736-1.396,1.055L204,117.327l0.814,0.303
		c0.529,0.197,1.35,0.508,2.089,1.107C204.18,119.132,201.211,119.354,198.5,119.358z M208.928,120.251l-0.075,0.135l-0.059-0.145
		c-0.496-1.264-1.444-2.205-2.897-2.869l-0.13-0.061l0.124-0.074c0.564-0.33,0.88-0.709,0.958-1.156
		c0.196-1.105-1.105-2.215-2.613-3.5c-0.44-0.379-0.897-0.768-1.327-1.168v-0.02l-0.018,0.002c-1.147-1.074-2.104-2.219-2.051-3.377
		c0.033-0.748,0.479-1.463,1.359-2.178c1.309,0.748,2.632,1.492,3.978,2.229c-0.175,0.289-0.294,0.6-0.333,0.943
		c-0.113,0.998,0.452,2.076,1.729,3.293C210.852,115.431,210.795,116.958,208.928,120.251z M217.016,115.759
		c-1.541,0.912-3.691,1.682-6.383,2.293c0.59-2.035-0.008-3.732-2.613-6.217c-0.096-0.09-0.18-0.178-0.267-0.268
		c1.351-0.182,2.624-0.4,3.808-0.65c2.346,1.201,4.742,2.369,7.184,3.492C218.311,114.882,217.736,115.333,217.016,115.759z
		 M213.844,110.364c1.104-0.303,2.097-0.641,2.959-1.006c1.455,0.613,2.72,1.271,2.892,2.498c0,0.055,0,0.107,0,0.162v0.021h0.013
		c0.004,0.037,0.008,0.07,0.008,0.109c0,0.273-0.04,0.543-0.117,0.807C217.654,112.108,215.735,111.243,213.844,110.364z
		 M247.34,113.175c-0.146,0.49-0.471,0.832-0.989,1.051c-0.42,0.178-0.971,0.27-1.636,0.27c-2.024,0-6.131-0.877-14.207-5.055
		c-4.945-2.563-11.604-5.613-15.23-5.613c-0.644,0-1.174,0.096-1.578,0.287c-0.085,0.041-0.164,0.086-0.238,0.135
		c0.236-2.043,0.512-4.477,0.656-5.93c0.053-0.521,0.298-0.898,0.753-1.148c0.298-0.162,0.86-0.359,1.844-0.359
		c2.089,0,6.332,0.883,14.686,5.084c6.223,3.131,12.455,6.027,15.897,6.027c0.612,0,1.134-0.09,1.548-0.268
		c0.068-0.027,0.134-0.063,0.196-0.098L247.34,113.175z M249.502,106.022c-0.148,0.496-0.448,0.834-0.914,1.037
		c-0.341,0.145-0.772,0.217-1.281,0.217c-2.243,0-6.092-1.348-12.118-4.238l-0.053-0.025l0.771-3.334l0.068,0.012
		c6.809,1.016,12.026,2.953,13.29,4.936C249.565,105.101,249.644,105.556,249.502,106.022z"/>
</g>
<g>
	<polygon points="87.327,94.873 88.438,94.873 88.438,101.939 92.177,101.939 92.177,102.965 87.327,102.965 	"/>
	<polygon points="94.335,94.873 99.362,94.873 99.362,95.865 95.493,95.865 95.493,98.213 98.349,98.213 98.349,99.238 
		95.515,99.238 95.515,101.939 99.571,101.939 99.571,102.965 94.335,102.965 	"/>
	<g>
		<path d="M108.815,96.891c-0.121-0.365-0.408-1.213-1.323-1.213c-0.286,0-1.113,0.109-1.499,1.432
			c-0.208,0.705-0.208,1.799-0.208,1.83c0,0.871,0.098,1.697,0.429,2.383c0.408,0.838,1.07,0.883,1.301,0.883
			c0.606,0,0.992-0.344,1.115-0.477c0.428-0.496,0.45-0.924,0.473-1.465h-1.565v-1.025h2.634v3.891h-0.396l-0.252-0.506
			c-0.101-0.209-0.176-0.287-0.244-0.287c-0.045,0-0.1,0.021-0.143,0.057c-0.044,0.043-0.121,0.119-0.176,0.164
			c-0.222,0.188-0.761,0.66-1.622,0.66c-0.33,0-1.069,0-1.753-0.848c-0.76-0.928-0.938-2.459-0.938-3.363
			c0-0.938,0.145-2.139,0.651-2.977c0.651-1.092,1.654-1.311,2.128-1.311c1.377,0,2.217,0.936,2.437,1.951L108.815,96.891z"/>
	</g>
	<path d="M112.893,94.873h5.026v0.992h-3.868v2.348h2.854v1.023h-2.833v2.703h4.057v1.025h-5.235V94.873z M116.64,92.756
		l-1.444,1.555h-0.737l0.98-1.555H116.64z"/>
	<g>
		<path d="M120.474,94.873h1.434l2.347,5.203c0,0.012,0.319,0.793,0.331,0.805c0.055,0.143,0.287,0.783,0.332,0.914
			c0.021,0,0.043,0.012,0.064,0.012c0.045-0.045,0.045-0.055,0.045-0.166c0-0.121-0.045-0.672-0.045-0.783
			c-0.021-0.508-0.021-0.926-0.021-1.201v-4.783h0.925v8.092h-1.409l-2.359-5.26c-0.299-0.67-0.596-1.543-0.65-1.721
			c-0.011-0.01-0.045-0.01-0.056-0.021c-0.065,0.057-0.065,0.066-0.065,0.123c0,0.23,0.055,1.443,0.055,1.498v5.381h-0.926V94.873z"
			/>
	</g>
	<polygon points="128.296,102.248 128.98,102.248 128.98,95.611 128.296,95.611 128.296,94.873 130.844,94.873 130.844,95.611 
		130.126,95.611 130.126,102.248 130.844,102.248 130.844,102.965 128.296,102.965 	"/>
	<polygon points="133.312,94.873 138.338,94.873 138.338,95.865 134.469,95.865 134.469,98.213 137.323,98.213 137.323,99.238 
		134.491,99.238 134.491,101.939 138.547,101.939 138.547,102.965 133.312,102.965 	"/>
	<polygon points="14.797,106.811 19.824,106.811 19.824,107.803 15.955,107.803 15.955,110.15 18.81,110.15 18.81,111.176 
		15.977,111.176 15.977,113.877 20.033,113.877 20.033,114.902 14.797,114.902 	"/>
	<g>
		<path d="M22.378,106.811h1.433l2.349,5.203c0,0.012,0.319,0.793,0.331,0.805c0.055,0.143,0.285,0.781,0.33,0.916
			c0.021,0,0.045,0.01,0.066,0.01c0.043-0.045,0.043-0.055,0.043-0.164c0-0.123-0.043-0.674-0.043-0.783
			c-0.021-0.508-0.021-0.926-0.021-1.203v-4.783h0.925v8.092h-1.411l-2.359-5.26c-0.299-0.672-0.595-1.543-0.649-1.719
			c-0.013-0.012-0.046-0.012-0.056-0.023c-0.066,0.057-0.066,0.066-0.066,0.121c0,0.232,0.055,1.445,0.055,1.5v5.381h-0.925V106.811
			z"/>
		<path d="M33.992,106.811h1.754c0.869,0,1.775,0.055,2.479,0.563c0.651,0.451,0.993,1.09,0.993,1.906
			c0,1.016-0.497,1.543-0.828,1.809c-0.693,0.551-1.543,0.594-2.292,0.594h-0.981v3.221h-1.125V106.811z M35.117,107.758v2.955
			c0.143,0.01,0.287,0.01,0.44,0.01c1.356,0,2.448-0.152,2.448-1.465c0-1.5-1.633-1.5-2.194-1.5H35.117z"/>
		<path d="M41.586,106.811h2.49c2.26,0,2.745,1.365,2.745,2.193c0,1.521-1.003,1.93-1.731,2.16l2.119,3.738h-1.324l-1.92-3.596
			h-1.246v3.596h-1.133V106.811z M42.709,107.758v2.68c0.618,0.01,1.411,0.01,1.83-0.078c0.44-0.1,1.135-0.33,1.135-1.234
			c0-0.949-0.639-1.367-1.851-1.367H42.709z"/>
	</g>
	<polygon points="49.21,106.811 54.236,106.811 54.236,107.803 50.368,107.803 50.368,110.15 53.223,110.15 53.223,111.176 
		50.391,111.176 50.391,113.877 54.445,113.877 54.445,114.902 49.21,114.902 	"/>
	<g>
		<path d="M59.955,114.902l-1.961-7.387c-0.012-0.033-0.034-0.066-0.078-0.066c-0.045,0-0.1,0.043-0.1,0.111v7.342h-0.914v-8.092
			h1.685l1.722,6.283c0.021,0.066,0.055,0.1,0.1,0.1c0.064,0,0.119-0.045,0.131-0.109l1.676-6.273h1.708v8.092h-0.915v-7.299
			c0-0.066-0.043-0.1-0.076-0.1c-0.043,0-0.089,0.023-0.109,0.078l-1.941,7.32H59.955z"/>
	</g>
	<polygon points="66.455,114.186 67.138,114.186 67.138,107.549 66.455,107.549 66.455,106.811 69.002,106.811 69.002,107.549 
		68.283,107.549 68.283,114.186 69.002,114.186 69.002,114.902 66.455,114.902 	"/>
	<path d="M71.469,106.811h5.028v0.992h-3.869v2.348h2.854v1.025h-2.834v2.701h4.058v1.025h-5.237V106.811z M74.488,106.248h-0.737
		l-1.444-1.555h1.202L74.488,106.248z"/>
	<g>
		<path d="M79.096,106.811h2.492c2.259,0,2.744,1.365,2.744,2.193c0,1.521-1.004,1.93-1.73,2.16l2.117,3.738h-1.323l-1.919-3.596
			h-1.247v3.596h-1.134V106.811z M80.221,107.758v2.68c0.617,0.01,1.41,0.01,1.828-0.078c0.441-0.1,1.137-0.33,1.137-1.234
			c0-0.949-0.641-1.367-1.852-1.367H80.221z"/>
	</g>
	<polygon points="86.721,106.811 91.747,106.811 91.747,107.803 87.878,107.803 87.878,110.15 90.733,110.15 90.733,111.176 
		87.9,111.176 87.9,113.877 91.956,113.877 91.956,114.902 86.721,114.902 	"/>
	<g>
		<path d="M101.124,109.158c-0.087-0.783-0.462-1.488-1.345-1.488c-0.805,0-1.147,0.627-1.322,1.059
			c-0.298,0.727-0.33,1.852-0.33,1.939c0,1.775,0.319,3.506,1.652,3.506c0.64,0,0.97-0.463,1.07-0.617
			c0.219-0.375,0.266-0.838,0.287-1.102l1.101,0.197c-0.042,0.641-0.274,1.334-0.761,1.82c-0.692,0.693-1.487,0.693-1.797,0.693
			c-0.66,0-2.656-0.34-2.656-4.232c0-1.863,0.475-4.223,2.756-4.223c0.517,0,1.191,0.154,1.687,0.662
			c0.552,0.561,0.662,1.201,0.718,1.586L101.124,109.158z"/>
	</g>
	<polygon points="104.66,106.811 105.771,106.811 105.771,113.877 109.511,113.877 109.511,114.902 104.66,114.902 	"/>
	<g>
		<path d="M115.604,113.215h-3.196l-0.509,1.688h-1.178l2.612-8.092h1.267l2.735,8.092h-1.18L115.604,113.215z M115.284,112.279
			l-1.278-4.125c-0.013-0.021-0.023-0.043-0.055-0.043c-0.034,0-0.045,0.031-0.057,0.055l-1.201,4.113H115.284z"/>
		<path d="M122.909,108.926c-0.375-0.748-0.728-1.301-1.664-1.301c-0.496,0-1.235,0.287-1.235,1.07c0,0.727,0.617,1.037,0.883,1.156
			l1.608,0.729c0.276,0.133,0.871,0.463,1.214,1.059c0.1,0.188,0.274,0.494,0.274,1.092c0,0.76-0.274,1.389-0.792,1.83
			c-0.663,0.572-1.324,0.572-1.755,0.572c-0.496,0-1.288-0.166-1.851-0.639c-0.52-0.43-0.717-0.838-0.904-1.223l0.969-0.607
			c0.232,0.65,0.771,1.455,1.863,1.455c0.685,0,1.423-0.42,1.423-1.301c0-0.375-0.142-0.85-0.992-1.234l-1.433-0.652
			c-0.496-0.219-1.08-0.627-1.336-1.08c-0.109-0.197-0.242-0.561-0.242-1.125c0-1.223,1.037-2.082,2.306-2.082
			c1.233,0,2.117,0.617,2.612,1.721L122.909,108.926z"/>
		<path d="M129.918,108.926c-0.375-0.748-0.728-1.301-1.664-1.301c-0.496,0-1.234,0.287-1.234,1.07c0,0.727,0.617,1.037,0.881,1.156
			l1.609,0.729c0.275,0.133,0.871,0.463,1.213,1.059c0.101,0.188,0.275,0.494,0.275,1.092c0,0.76-0.275,1.389-0.793,1.83
			c-0.662,0.572-1.322,0.572-1.754,0.572c-0.496,0-1.289-0.166-1.852-0.639c-0.52-0.43-0.717-0.838-0.903-1.223l0.968-0.607
			c0.232,0.65,0.773,1.455,1.865,1.455c0.684,0,1.421-0.42,1.421-1.301c0-0.375-0.142-0.85-0.989-1.234l-1.436-0.652
			c-0.495-0.219-1.08-0.627-1.334-1.08c-0.111-0.197-0.241-0.561-0.241-1.125c0-1.223,1.035-2.082,2.304-2.082
			c1.233,0,2.116,0.617,2.611,1.721L129.918,108.926z"/>
	</g>
	<polygon points="133.311,106.811 138.337,106.811 138.337,107.803 134.469,107.803 134.469,110.15 137.322,110.15 137.322,111.176 
		134.491,111.176 134.491,113.877 138.547,113.877 138.547,114.902 133.311,114.902 	"/>
</g>
<rect x="260.509" y="114.879" width="31.884" height="19.146"/>
<rect x="260.509" y="76.588" width="31.884" height="19.146"/>
<rect x="260.509" width="31.884" height="19.147"/>
<rect x="260.509" y="38.293" width="31.884" height="19.148"/>
</svg>
