<?xml version="1.0" encoding="utf-8"?>
<!-- Generator: Adobe Illustrator 16.0.0, SVG Export Plug-In . SVG Version: 6.00 Build 0)  -->
<!DOCTYPE svg PUBLIC "-//W3C//DTD SVG 1.1//EN" "http://www.w3.org/Graphics/SVG/1.1/DTD/svg11.dtd">
<svg version="1.1"
	 id="svg2759" xmlns:dc="http://purl.org/dc/elements/1.1/" xmlns:cc="http://web.resource.org/cc/" xmlns:rdf="http://www.w3.org/1999/02/22-rdf-syntax-ns#" xmlns:svg="http://www.w3.org/2000/svg" xmlns:sodipodi="http://sodipodi.sourceforge.net/DTD/sodipodi-0.dtd" xmlns:inkscape="http://www.inkscape.org/namespaces/inkscape" inkscape:output_extension="org.inkscape.output.svg.inkscape" sodipodi:docname="by-nd.svg" inkscape:version="0.45+devel" sodipodi:version="0.32"
	 xmlns="http://www.w3.org/2000/svg" xmlns:xlink="http://www.w3.org/1999/xlink" x="0px" y="0px" width="120px" height="42px"
	 viewBox="0 0 120 42" enable-background="new 0 0 120 42" xml:space="preserve">
<sodipodi:namedview  height="42px" width="120px" id="base" inkscape:cy="89.569904" inkscape:cx="179" inkscape:zoom="1" objecttolerance="10" guidetolerance="10" gridtolerance="10000" borderopacity="1" bordercolor="#8b8b8b" pagecolor="#ffffff" inkscape:window-y="401" inkscape:window-x="488" inkscape:window-height="624" inkscape:window-width="1198" inkscape:showpageshadow="false" inkscape:current-layer="layer1" inkscape:pageshadow="2" inkscape:pageopacity="0.0" inkscape:document-units="px">
	</sodipodi:namedview>
<g id="layer1" inkscape:label="Layer 1" inkscape:groupmode="layer">
	
		<g id="g78" transform="matrix(0.9937808,0,0,0.9936696,-177.69414,-223.30978)" inkscape:export-ydpi="300.23013" inkscape:export-xdpi="300.23013" inkscape:export-filename="/mnt/hgfs/Bov/Documents/Work/2007/cc/identity/srr buttons/big/by-nd.png">
		<g id="g5908_6_" transform="matrix(0.872921,0,0,0.872921,50.12536,143.2144)">
			<path id="path5906_6_" fill="#FFFFFF" d="M187.209,115.907c0.006,8.68-7.027,15.721-15.708,15.728
				c-8.68,0.004-15.722-7.028-15.727-15.709c0-0.007,0-0.012,0-0.019c-0.005-8.681,7.028-15.721,15.708-15.727
				c8.682-0.004,15.723,7.028,15.727,15.708C187.209,115.895,187.209,115.901,187.209,115.907z"/>
			<g id="g5706_6_" transform="translate(-289.6157,99.0653)">
				<path id="path5708_6_" d="M473.884,4.041c3.485,3.485,5.228,7.753,5.228,12.802c0,5.05-1.713,9.272-5.138,12.669
					c-3.635,3.575-7.932,5.362-12.89,5.362c-4.897,0-9.12-1.772-12.665-5.319c-3.546-3.546-5.319-7.784-5.319-12.713
					c0-4.928,1.773-9.196,5.319-12.802c3.455-3.487,7.677-5.23,12.665-5.23C466.133-1.19,470.399,0.553,473.884,4.041z
					 M450.766,6.385c-2.947,2.977-4.42,6.464-4.42,10.462s1.458,7.455,4.375,10.372c2.916,2.915,6.389,4.374,10.417,4.374
					c4.028,0,7.53-1.473,10.506-4.419c2.826-2.737,4.24-6.178,4.24-10.327c0-4.118-1.436-7.613-4.308-10.485
					c-2.871-2.87-6.35-4.306-10.438-4.306C457.05,2.056,453.592,3.499,450.766,6.385z M458.521,15.088
					c-0.45-0.982-1.125-1.472-2.023-1.472c-1.589,0-2.383,1.07-2.383,3.208c0,2.139,0.794,3.208,2.383,3.208
					c1.05,0,1.799-0.52,2.249-1.563l2.203,1.171c-1.05,1.866-2.625,2.8-4.726,2.8c-1.619,0-2.917-0.496-3.892-1.49
					c-0.976-0.994-1.463-2.364-1.463-4.109c0-1.715,0.502-3.076,1.507-4.086c1.005-1.008,2.257-1.511,3.758-1.511
					c2.22,0,3.809,0.874,4.77,2.623L458.521,15.088z M468.884,15.088c-0.451-0.982-1.112-1.472-1.982-1.472
					c-1.621,0-2.432,1.07-2.432,3.208c0,2.139,0.811,3.208,2.432,3.208c1.051,0,1.787-0.52,2.207-1.563l2.252,1.171
					c-1.048,1.866-2.621,2.8-4.717,2.8c-1.618,0-2.913-0.496-3.887-1.49c-0.972-0.994-1.46-2.364-1.46-4.109
					c0-1.715,0.495-3.076,1.483-4.086c0.988-1.008,2.245-1.511,3.773-1.511c2.216,0,3.803,0.874,4.761,2.623L468.884,15.088z"/>
			</g>
		</g>
		<g id="g85">
			
				<circle id="circle87" sodipodi:cx="242.56226" sodipodi:rx="10.8064" sodipodi:cy="240.00684" sodipodi:ry="10.8064" fill="#FFFFFF" cx="242.562" cy="240.007" r="10.805">
			</circle>
			<g id="g89">
				<path id="path91" d="M245.69,236.88c0-0.417-0.338-0.754-0.754-0.754h-4.773c-0.416,0-0.754,0.337-0.754,0.754v4.772h1.331
					v5.653h3.618v-5.653h1.332V236.88L245.69,236.88z"/>
				
					<circle id="circle93" sodipodi:cx="242.5498" sodipodi:rx="1.63232" sodipodi:cy="233.86523" sodipodi:ry="1.63232" cx="242.55" cy="233.865" r="1.632">
				</circle>
			</g>
			<path id="path95" d="M242.534,228.1c-3.232,0-5.968,1.127-8.207,3.384c-2.298,2.333-3.446,5.096-3.446,8.284
				s1.148,5.932,3.446,8.226c2.298,2.296,5.034,3.443,8.207,3.443c3.213,0,5.998-1.157,8.354-3.472
				c2.221-2.197,3.33-4.929,3.33-8.197s-1.129-6.028-3.388-8.284C248.572,229.228,245.807,228.1,242.534,228.1z M242.564,230.2
				c2.648,0,4.898,0.934,6.747,2.801c1.87,1.847,2.805,4.104,2.805,6.767c0,2.684-0.915,4.911-2.746,6.68
				c-1.928,1.906-4.196,2.859-6.806,2.859c-2.61,0-4.858-0.943-6.747-2.829c-1.89-1.887-2.834-4.123-2.834-6.71
				s0.954-4.843,2.862-6.767C237.677,231.134,239.917,230.2,242.564,230.2z"/>
		</g>
		<path id="path97" d="M297.297,224.732h-116.23c-1.247,0-2.261,1.015-2.261,2.261v39.496c0,0.283,0.229,0.511,0.51,0.511h119.729
			c0.282,0,0.511-0.228,0.511-0.511v-39.496C299.557,225.747,298.543,224.732,297.297,224.732z M181.067,225.754h116.23
			c0.683,0,1.238,0.556,1.238,1.239c0,0,0,15.883,0,27.379h-83.073c-3.045,5.506-8.911,9.244-15.644,9.244
			c-6.735,0-12.6-3.736-15.643-9.244h-4.347c0-11.496,0-27.379,0-27.379C179.828,226.31,180.384,225.754,181.067,225.754z"/>
		<g id="g99" enable-background="new    ">
			<path id="path101" fill="#FFFFFF" d="M239.178,257.689c0.318,0,0.607,0.028,0.869,0.084c0.262,0.056,0.486,0.147,0.673,0.275
				c0.187,0.127,0.332,0.297,0.435,0.508c0.102,0.212,0.154,0.472,0.154,0.784c0,0.336-0.077,0.615-0.23,0.839
				c-0.151,0.224-0.378,0.407-0.678,0.55c0.413,0.118,0.72,0.324,0.924,0.621c0.202,0.295,0.305,0.653,0.305,1.069
				c0,0.336-0.065,0.627-0.197,0.873c-0.131,0.246-0.308,0.446-0.529,0.601c-0.221,0.156-0.474,0.271-0.757,0.346
				c-0.285,0.075-0.576,0.112-0.876,0.112h-3.236v-6.663H239.178L239.178,257.689z M238.991,260.384
				c0.261,0,0.477-0.062,0.645-0.187c0.169-0.124,0.252-0.325,0.252-0.604c0-0.155-0.029-0.282-0.084-0.382
				c-0.057-0.099-0.131-0.177-0.225-0.232c-0.093-0.057-0.201-0.094-0.322-0.117c-0.121-0.022-0.248-0.032-0.378-0.032h-1.374v1.555
				H238.991z M239.076,263.212c0.143,0,0.281-0.014,0.412-0.042c0.13-0.029,0.247-0.075,0.346-0.14
				c0.1-0.066,0.179-0.154,0.239-0.266c0.06-0.112,0.088-0.255,0.088-0.429c0-0.341-0.096-0.586-0.29-0.731
				c-0.193-0.146-0.449-0.219-0.767-0.219h-1.6v1.828H239.076L239.076,263.212z"/>
			<path id="path103" fill="#FFFFFF" d="M241.889,257.689h1.644l1.56,2.631l1.551-2.631h1.633l-2.472,4.106v2.557h-1.47v-2.595
				L241.889,257.689z"/>
		</g>
		<g id="g105" enable-background="new    ">
			<path id="path107" fill="#FFFFFF" d="M265.277,257.689l2.783,4.47h0.016v-4.47h1.376v6.663h-1.466l-2.773-4.462h-0.019v4.462
				h-1.375v-6.663H265.277z"/>
			<path id="path109" fill="#FFFFFF" d="M273.614,257.689c0.431,0,0.83,0.068,1.202,0.204c0.37,0.138,0.691,0.343,0.963,0.616
				c0.269,0.273,0.482,0.616,0.635,1.027c0.153,0.411,0.229,0.892,0.229,1.447c0,0.486-0.062,0.934-0.187,1.343
				c-0.125,0.412-0.313,0.766-0.565,1.064c-0.254,0.299-0.568,0.534-0.945,0.705c-0.376,0.172-0.82,0.257-1.332,0.257h-2.878v-6.663
				H273.614L273.614,257.689z M273.511,263.118c0.211,0,0.417-0.033,0.616-0.102c0.199-0.069,0.377-0.182,0.533-0.34
				c0.155-0.159,0.28-0.366,0.373-0.62c0.092-0.255,0.14-0.565,0.14-0.933c0-0.336-0.031-0.639-0.097-0.909
				c-0.066-0.27-0.173-0.502-0.322-0.695c-0.149-0.193-0.347-0.34-0.593-0.442s-0.55-0.153-0.91-0.153h-1.047v4.195H273.511
				L273.511,263.118z"/>
		</g>
		<g id="g6501" transform="matrix(0.624995,0,0,0.624995,-183.0107,316.9328)">
			<path id="path6503" fill="#FFFFFF" d="M743.93-123.4c0.006,9.411-7.619,17.047-17.031,17.055
				c-9.412,0.005-17.047-7.617-17.055-17.031c0-0.008,0-0.017,0-0.024c-0.006-9.412,7.618-17.046,17.031-17.054
				c9.413-0.008,17.047,7.617,17.055,17.03C743.93-123.417,743.93-123.409,743.93-123.4z"/>
			<g id="g6505" transform="translate(-23.9521,-87.92102)">
				<path id="path6507" d="M750.573-54.149c-5.174,0-9.55,1.803-13.133,5.412c-3.676,3.735-5.512,8.153-5.512,13.257
					c0,5.103,1.836,9.49,5.512,13.163c3.676,3.672,8.053,5.508,13.133,5.508c5.14,0,9.596-1.854,13.366-5.556
					c3.55-3.517,5.327-7.889,5.327-13.116c0-5.229-1.807-9.646-5.421-13.257C760.231-52.346,755.805-54.149,750.573-54.149z
					 M750.62-50.791c4.236,0,7.835,1.495,10.795,4.484c2.991,2.955,4.486,6.563,4.486,10.828c0,4.294-1.464,7.857-4.393,10.688
					c-3.085,3.049-6.715,4.574-10.888,4.574c-4.178,0-7.775-1.51-10.797-4.529c-3.022-3.018-4.533-6.596-4.533-10.734
					c0-4.14,1.527-7.748,4.58-10.828C742.799-49.296,746.382-50.791,750.62-50.791z"/>
				<g id="g6509">
					<path id="path6511" d="M757.651-39.904h-13.574v3.214h13.574V-39.904z M757.651-33.904h-13.574v3.214h13.574V-33.904z"/>
				</g>
			</g>
		</g>
	</g>
</g>
</svg>
